<?xml version="1.0" standalone="no"?>
<!DOCTYPE svg PUBLIC "-//W3C//DTD SVG 1.1//EN" "http://www.w3.org/Graphics/SVG/1.1/DTD/svg11.dtd" >
<!--
2013-9-30: Created.
-->
<svg>
<metadata>
Created by iconfont
</metadata>
<defs>

<font id="yn-icons" horiz-adv-x="1024" >
  <font-face
    font-family="yn-icons"
    font-weight="500"
    font-stretch="normal"
    units-per-em="1024"
    ascent="896"
    descent="-128"
  />
    <missing-glyph />
    
    <glyph glyph-name="suofang" unicode="&#59175;" d="M512 84.015741c0-20.518313-16.97972-37.498032-37.498032-37.498032-9.951653 0-19.338441 4.103458-26.366508 11.131525l-84.35727 84.382852L169.234379-52.510702c-3.514033-3.514033-8.771781-5.848195-13.465686-5.848195s-9.951653 2.334161-13.465686 5.848195l-66.813708 66.813708c-3.514033 3.514033-5.848195 8.771781-5.848195 13.465686 0 4.693906 2.334161 9.951653 5.848195 13.465686l194.543811 194.542788-84.382852 84.35727c-7.028067 7.028067-11.131525 16.414855-11.131525 26.366508 0 20.518313 16.97972 37.498032 37.498032 37.498032l262.486226 0c20.518313 0 37.498032-16.97972 37.498032-37.498032L512.001023 84.015741zM948.510702 726.765621 753.96689 532.222833l84.382852-84.35727c7.028067-7.028067 11.131525-16.414855 11.131525-26.366508 0-20.518313-16.97972-37.498032-37.498032-37.498032L549.498032 384.001023c-20.518313 0-37.498032 16.97972-37.498032 37.498032L512 683.984259c0 20.518313 16.97972 37.498032 37.498032 37.498032 9.951653 0 19.338441-4.103458 26.366508-11.131525l84.35727-84.382852L854.765621 820.510702c3.514033 3.514033 8.771781 5.848195 13.465686 5.848195 4.693906 0 9.951653-2.334161 13.465686-5.848195l66.813708-66.813708c3.514033-3.514033 5.848195-8.771781 5.848195-13.465686S952.023712 730.279654 948.510702 726.765621z"  horiz-adv-x="1024" />

    
    <glyph glyph-name="tianjiachengyuan1" unicode="&#59179;" d="M975.75936 439.16288l-122.3168 0L853.44256 561.3312c0 12.69248-10.29632 23.01952-22.93248 23.01952s-22.93248-10.35776-22.93248-23.01952l0-122.16832-122.2912 0c-12.63104 0-22.93248-10.35776-22.93248-23.01952s10.29632-22.93248 22.93248-22.93248l122.2912 0 0-122.2912c0-12.66176 10.29632-22.9632 22.93248-22.9632s22.93248 10.29632 22.93248 22.9632L853.44256 393.21088l122.3168 0c12.63104 0 22.93248 10.29632 22.93248 22.93248C998.72256 428.83584 988.39552 439.16288 975.75936 439.16288zM20.44928 138.16832c0-105.40544 120.10496-158.84288 356.93056-158.84288l2.03776 0c49.03424 0 94.30016 2.24768 134.5024 6.73792 40.32512 4.39808 74.2144 10.89536 100.67456 19.30752 26.496 8.35072 49.45408 17.72032 68.224 27.84256 18.08384 9.75872 32.06144 20.864 41.49248 33.01888 9.46176 12.27264 16.34304 24.30976 20.35712 35.6864 4.00896 11.28448 6.016 23.47008 6.016 36.25472 0 22.59968-11.40736 43.8272-33.9456 63.07328-23.88992 20.26496-53.97504 36.79232-89.32864 49.09568-29.42976 10.32704-62.5664 18.88768-98.54976 25.50784l-43.136 7.93088 33.08032 28.8c15.26784 13.29152 28.52864 28.4672 39.48544 45.20448 14.18752 21.76512 24.72448 46.22336 31.37536 72.68352 6.79424 27.08992 11.46368 52.53632 13.92128 75.648 2.4832 23.17312 3.712 49.45408 3.712 78.07488 0 43.67872-8.77056 81.6384-26.01472 112.79872-17.152 31.104-42.27072 55.1424-74.72128 71.5776-32.8704 16.58368-72.35584 24.96512-117.22752 24.96512l-7.6032 0c-68.5824 0-122.70592-18.70848-160.90624-55.62368-37.86752-36.70016-57.05728-88.40192-57.05728-153.72288 0-28.6208 1.2288-54.87104 3.712-78.01344 2.4832-23.37792 7.15264-48.82432 13.92128-75.648 6.61504-26.46528 17.18272-50.92352 31.40096-72.74496 10.86464-16.64512 24.15616-31.85152 39.48544-45.17376l33.08032-28.8-43.16672-7.93088c-35.92192-6.61504-69.06368-15.17568-98.51904-25.50784-35.50208-12.3648-65.5616-28.91776-89.32864-49.18272C31.85664 181.99552 20.44928 160.79872 20.44928 138.16832zM93.1328 168.10496c10.74688 8.91904 25.53344 17.60256 45.11232 26.43456 18.80064 8.35072 42.74688 16.28672 71.24992 23.58784 28.25728 7.2448 58.37824 12.69248 89.63072 16.16384 7.6032 0.59904 13.2608 3.20512 17.99168 8.02304 4.81792 4.79232 6.94272 9.69728 6.94272 15.62624l0 53.67808c0 5.89824-1.49504 13.64992-13.2608 21.07392-10.92608 5.74976-21.88288 14.10048-31.16544 24.06912-9.07264 9.75872-16.91648 20.11648-23.3216 30.83264-6.22592 10.44992-11.91424 22.33344-16.88576 35.32288-4.81792 12.66176-8.59136 25.38496-11.28448 37.95968-2.57536 12.39552-4.84864 25.92256-6.67648 40.56576-1.82784 14.81728-2.96448 28.67712-3.32288 41.57952-0.3584 12.9024-0.5376 26.55232-0.5376 41.10336 0 52.59776 14.03904 92.92288 41.7024 119.86432 27.36128 26.76224 68.55168 40.38144 122.40896 40.38144l7.72096 0c107.35104 0 164.08064-55.38304 164.08064-160.18944 0-27.18208-1.10592-51.85024-3.29216-73.25184-2.15552-21.82144-6.25664-44.7232-12.15488-67.92704-5.98528-23.79776-15.7184-45.62432-28.9792-64.75264-12.99456-18.80064-29.90592-34.6368-48.7936-45.7728-4.2496-2.09408-5.26848-3.20512-5.50912-3.50208-2.304-2.51392-3.47136-4.31104-4.73088-6.28736-0.8704-1.408-1.61792-3.23072-2.21696-5.44768-0.47616-1.82784-0.74752-3.86048-0.74752-5.6576l0-53.67808c0-5.98528 2.03776-10.98752 6.43584-15.7184 4.4288-4.73088 10.11712-7.30624 17.42336-7.84384 61.8496-6.25664 114.65728-19.12832 157.52192-38.31808 47.26784-21.16608 68.34176-39.03488 68.34176-57.92768 0-24.48896-13.56288-45.35296-40.2944-62.05952-24.93952-15.59552-61.6704-27.54048-109.08672-35.56352-46.6688-7.93088-103.87968-11.97568-170.0096-11.97568-203.9552 0-303.104 35.8912-303.104 109.68576C74.27584 147.8656 80.44032 157.65504 93.1328 168.10496z"  horiz-adv-x="1024" />

    
    <glyph glyph-name="weibo" unicode="&#59186;" d="M832.9 462.3c13.4 0 24.5 9.7 26.5 22.4 0.2 1 0.3 1.8 0.3 2.8 20.1 178.4-148.2 147.6-148.2 147.6-14.9 0-26.9-11.8-26.9-26.9 0-14.7 12-26.5 26.9-26.5 120.8 26.4 94.3-92.9 94.3-92.9-0.1-14.7 12.1-26.5 27.1-26.5z m-19.6 311.3c-58.1 13.5-118.1 1.8-134.9-1.3-1.4-0.2-2.5-1.3-3.7-1.5-0.5-0.2-1-0.7-1-0.7-16.6-4.7-28.6-19.7-28.6-37.5 0-21.2 17.4-38.7 39.2-38.7 0 0 21.1 2.8 35.5 8.3 14.2 5.7 134.9 4.2 194.7-94.9 32.6-72.4 14.4-120.8 12-128.6 0 0-7.8-18.9-7.8-37.4 0-21.4 17.4-34.9 39.2-34.9 18.1 0 33.3 2.5 37.7 32.7h0.2c64.6 211.4-78.4 310.7-182.5 334.5zM403.9 46.2c-163.8-7.5-296.2 73.4-296.2 181.2 0 107.9 132.5 194.4 296.2 201.9 163.9 7.5 296.6-59.2 296.6-166.8 0-107.7-132.7-209-296.6-216.3z m348.8 350.2c-38.9 7.5-19.9 28-19.9 28s38 61.9-7.6 106.9c-56.4 55.7-193.8-7-193.8-7-52.4-16-38.5 7.3-31.1 47.1 0 46.9-16.2 126.1-156 79.4C204.6 603.6 84.8 438.6 84.8 438.6 1.5 329 12.5 244.2 12.5 244.2 33.3 57 234.9 5.6 391.7-6.6c164.9-12.7 387.7 56.1 455.1 197.5 67.6 141.8-55.1 197.8-94.1 205.5zM426.9 226.2c-10.5-7.7-23.3-6.7-28.7 2.7-5.7 9-3.5 23.4 6.9 30.9 12.2 9 24.8 6.3 30.4-2.7 5.4-9 1.5-22.9-8.6-30.9z m-97.2-81.6c-30.8-3.5-55.6 14-55.6 39.4 0 25.2 22 51.7 52.7 54.9 35.3 3.3 58.3-16.7 58.3-42.2 0.2-25.2-24.8-48.6-55.4-52.1z m41.5 213.8c-164.8-19-145.7-171.2-145.7-171.2s-1.7-48.2 44.1-72.7c96.3-51.6 195.7-20.3 245.7 43.5 50.3 63.7 20.9 219.2-144.1 200.4z"  horiz-adv-x="1024" />

    
    <glyph glyph-name="saomiao" unicode="&#59183;" d="M660-36.2c-17.2 0-31.2 13.4-31.2 30s14 30 31.2 30h222c23.6 0 42.8 19 42.8 41.8v178.2c0 16.6 13.8 30 31 30s31-13.4 31-30v-178.2c0-55.8-46.8-101.6-104.8-101.6H660v-0.2m-517.8 0c-58 0-104.6 45.8-104.6 101.6v178.2c0 16.6 13.8 30 31 30s31-13.4 31-30v-178.2c0-22.8 18.8-41.8 42.4-41.8h185c17.2 0 31.2-13.4 31.2-30s-14-30-31.2-30H142.2v0.2M31.2 391.2c-17.2 0-31.2 14-31.2 30.6s14 30.6 31.2 30.6h961.6c17.2 0 31.2-14 31.2-30.6s-14-30.6-31.2-30.6H31.2M955.6 570c-17.2 0-31 13.4-31 30V778.4c0 22.8-19.2 41.8-42.8 41.8H660c-17.2 0-31.2 13.4-31.2 30s14 30 31.2 30h222c58 0 104.8-45.8 104.8-101.6v-178.2c0-16.8-14-30.4-31.2-30.4z m-887 0c-17.2 0-31 13.4-31 30V778.4C37.6 834.2 84.2 880 142.2 880h185c17.2 0 31.2-13.4 31.2-30s-14-30-31.2-30H142.2c-23.6 0-42.4-19-42.4-41.8V600c-0.2-16.4-14-30-31.2-30z"  horiz-adv-x="1024" />

    
    <glyph glyph-name="chahao" unicode="&#59241;" d="M512 889.290323c-278.709677 0-505.290323-226.580645-505.290323-505.290323 0-279.225806 226.064516-505.290323 505.290323-505.290323 279.225806 0 505.290323 226.064516 505.290323 505.290323 0 278.709677-226.064516 505.290323-505.290323 505.290323zM762.322581 90.83871l-248.258065 248.258064-249.806451-249.806451-43.870968 43.870967 249.806451 249.806452-247.741935 247.741935 43.870968 43.870968 247.741935-248.258064 246.193549 246.193548 43.870967-43.870968-246.193548-246.193548 248.258064-248.258065-43.870967-43.354838z"  horiz-adv-x="1024" />

    
    <glyph glyph-name="banxing" unicode="&#59191;" d="M512 832c-24.8 0-46.4-13.6-57.6-36L344.8 573.6l-244-35.2c-24-3.2-44-20-52-44-8-23.2-1.6-48.8 16-65.6L241.6 256 200 12c-4-24 5.6-48.8 25.6-63.2 20-14.4 45.6-16.8 68-4.8L512 59.2V832zM509.6 832c24.8 0 46.4-13.6 57.6-36l108.8-221.6 244-35.2c24-3.2 44-20 52-44 8-23.2 1.6-48.8-16-65.6L780 256l41.6-244c4-24-5.6-48.8-25.6-63.2-20-14.4-45.6-16.8-68-4.8l-218.4 115.2V832z"  horiz-adv-x="1024" />

    
    <glyph glyph-name="yanzhengma" unicode="&#59238;" d="M512.124843-62.670086c-139.965775 0-376.814088 200.615087-376.814088 390.306381v362.13783c0 8.771781 14.078647 24.665773 23.565719 24.842805h23.554462c133.262096 7.259334 225.995127 51.29834 305.85292 105.480356l13.430893 9.129938c3.034103 2.053776 6.77224 3.160993 10.474563 3.160993 3.63683 0 7.143701-1.01512 10.163477-3.101641l13.614065-9.188267c75.750241-53.827953 222.769666-112.025423 305.97981-105.480356h23.554462c9.488095-0.177032 23.37743-16.071024 23.37743-24.839735l0.184195-362.139877c-0.001023-189.69334-236.849336-390.308427-376.937908-390.308427z m306.267359 730.180138c-150.984736 20.185738-186.065719 41.504276-306.267359 119.872135-96.7843-65.344241-156.840094-98.757235-329.693907-119.872135v-329.760422c0-164.445306 217.820957-353.309768 329.757352-353.309768 91.40171 0 328.121086 174.554548 329.757353 353.309768v329.760422h-23.553439zM500.161371 273.468604c-4.373611-4.350075-10.141988-6.526647-15.913435-6.526647-5.770424 0-11.543917 2.176572-15.960507 6.528694L353.556385 387.140527c-8.7902 8.705266-8.7902 22.73684 0 31.398104 8.835226 8.703219 23.082718 8.703219 31.872918 0l98.818633-97.998965 201.220884 199.2633c8.837272 8.703219 23.082718 8.703219 31.873942 0 8.835226-8.658194 8.835226-22.691815 0-31.395035L500.161371 273.470651v-0.002047z"  horiz-adv-x="1024" />

    
    <glyph glyph-name="jinyin" unicode="&#59180;" d="M874.4-64.441l-124.941 173.891v697.925l-0.469 4.346c-6.113 27.441-18.633 44.365-37.246 50.283-29.102 9.287-56.953-14.951-59.863-17.568l-244.277-215.264h-31.564l-136.425 189.873c-6.445 8.965-18.926 11.016-27.93 4.57-8.965-6.445-11.016-18.936-4.57-27.91l119.651-166.533h-72.464c-35.605 0-64.57-28.965-64.57-64.57v-309.316c0-35.586 28.965-64.551 64.57-64.551h162.715l251.484-234.043c13.711-11.25 26.523-16.895 38.301-16.895 5.449 0 10.684 1.211 15.664 3.633 25.957 12.598 27.227 51.035 26.992 62.109v35.322l92.442-128.662c3.906-5.43 10.039-8.32 16.27-8.32 4.043 0 8.125 1.211 11.66 3.75 8.965 6.445 11.016 18.945 4.57 27.93zM424.889 589.172v8.965l3.496-3.975 250.137 220.43c5.215 4.707 16.387 10.859 21.094 9.297 2.168-0.684 6.563-5.449 9.844-18.818v-639.949l-304.68 424.050h20.109zM705.162-19.676c-1.875 0.684-5.293 2.344-10.332 6.465l-262.070 243.946h-178.457c-13.555 0-24.57 11.016-24.57 24.551v309.316c0 13.545 11.016 24.57 24.57 24.57h101.203l353.953-492.638v-91.405c0.176-8.906-1.875-20.234-4.297-24.805z"  horiz-adv-x="1024" />

    
    <glyph glyph-name="EXCEL" unicode="&#59173;" d="M866.83136 675.80928l-110.2336 110.44352c-24.01792 23.99744-71.32672 43.70944-105.30816 43.70944H281.09824c-34.01728-0.11264-61.54752-27.73504-61.62432-61.824v-124.73344h49.33632V768.13312c0 6.74816 5.78048 12.31872 12.3648 12.31872h370.25792c3.60448 0 7.88992-0.42496 12.29824-1.29024v-196.48512h196.21888c0.8704-4.49024 1.29536-28.92288 1.29536-32.61952v-528c0-6.74304-5.78048-12.3136-12.34432-12.3136H281.09824a12.5696 12.5696 0 0 0-12.288 12.3136v41.45664h-49.40288v-41.45664c0-34.05312 27.70432-61.81888 61.69088-61.81888h567.71584c33.99168 0 61.69088 27.76576 61.69088 61.81888V549.97504c0 34.06848-19.59936 101.8368-43.61216 125.83424h-0.06144z m-153.856-43.70944V758.42048c3.13344-2.1248 6.0416-4.54144 8.68352-7.23968l110.15168-110.39232c2.65216-2.69312 5.06368-5.6064 7.23968-8.69376h-126.14656 0.07168zM593.85344 366.09536h202.51648v-57.96352h-202.51648v57.96352z m0-115.94752h202.51648v-57.984h-202.51648v57.984z m0 231.91552h202.51648v-57.96352h-202.51648V482.06336zM74.24 585.35424v-463.86176h462.90944V585.35424H74.24z m301.38368-386.4576l-70.14912 99.15392-70.36928-99.15392H132.32128l121.22624 167.72096-110.3104 154.30144h100.61312l62.9248-91.3152 61.696 91.3152h99.82976L357.632 364.36992l121.43616-165.47328H375.62368z"  horiz-adv-x="1024" />

    
    <glyph glyph-name="hongxin" unicode="&#59155;" d="M781.112889 748.302222c-149.532444 49.194667-253.838222-66.360889-271.175111-87.409778-0.924444 1.265778-111.246222 145.194667-274.602667 91.548445C40.32 688.469333-16.327111 442.368 96.156444 301.36888899999997c105.287111-131.754667 410.040889-361.841778 410.040889-361.841778s301.511111 216.846222 414.094223 357.717333c112.355556 140.970667 55.836444 387.157333-139.178667 451.057778z"  horiz-adv-x="1024" />

    
    <glyph glyph-name="wanchengdingdan" unicode="&#59177;" d="M325.808 205.344a16 16 0 1 0 0-32 16 16 0 0 0 0 32zM325.808 365.344a16 16 0 1 0 0-32 16 16 0 0 0 0 32zM405.808 525.344h320a16 16 0 1 0 0-32h-320a16 16 0 1 0 0 32zM325.808 525.344a16 16 0 1 0 0-32 16 16 0 0 0 0 32zM587.584 653.344h-128c-30.88 0-56 25.12-56 56v48c0 30.88 25.12 56 56 56h128c30.88 0 56-25.12 56-56v-48c0-30.88-25.136-56-56-56z m-128 128c-13.232 0-24-10.768-24-24v-48c0-13.232 10.768-24 24-24h128c13.232 0 24 10.768 24 24v48c0 13.232-10.768 24-24 24h-128zM544-19.296H325.904c-79.504 0-144.192 62.32-144.192 138.896v491.52c0 76.576 64.672 138.88 144.192 138.88h31.168a16 16 0 0 0 0-32h-31.168c-61.856 0-112.192-47.952-112.192-106.88v-491.52c0-58.944 50.336-106.896 112.192-106.896H544a16 16 0 1 0 0-32z m309.904 309.296a16 16 0 0 0-16 16V611.104c0 58.928-50.336 106.88-112.192 106.88h-31.408a16 16 0 1 0 0 32h31.408c79.504 0 144.192-62.304 144.192-138.88v-305.104a16 16 0 0 0-16-16zM696.304-69.664c-123.52 0-224 100.48-224 224s100.48 224 224 224 224-100.48 224-224-100.496-224-224-224z m0 416c-105.872 0-192-86.128-192-192s86.128-192 192-192 192 86.128 192 192-86.128 192-192 192zM809.52 233.536a15.984 15.984 0 0 1-22.624 0l-124.528-124.528-56.656 56.656a15.984 15.984 0 1 1-22.624-22.624l67.872-67.872a15.952 15.952 0 0 1 11.408-4.672 15.952 15.952 0 0 1 11.408 4.672l135.744 135.744a16 16 0 0 1 0 22.624zM493.744 189.344c0-8.848-7.76-16-17.328-16h-69.296c-9.568 0-17.328 7.152-17.328 16 0 8.848 7.76 16 17.328 16h69.296c9.584 0 17.328-7.152 17.328-16zM630 349.344c0-8.848-8.96-16-20.016-16h-200.16c-11.056 0-20.016 7.152-20.016 16 0 8.848 8.96 16 20.016 16h200.16c11.056 0 20.016-7.152 20.016-16z"  horiz-adv-x="1024" />

    
    <glyph glyph-name="kaiguanguan" unicode="&#59126;" d="M1021.76 383.876c0 169.952-137.77 307.727-307.724 307.727H309.801c-169.955 0-307.724-137.775-307.724-307.727s137.77-307.724 307.724-307.724h404.235c169.955 0 307.724 137.772 307.724 307.724z m-28.105-0.647c0-154.236-125.03-279.267-279.269-279.268-154.23 0-279.264 125.03-279.264 279.267 0 154.24 125.035 279.269 279.263 279.269 154.238 0 279.269-125.031 279.269-279.269z"  horiz-adv-x="1024" />

    
    <glyph glyph-name="tishi" unicode="&#59129;" d="M512 767.68a383.68 383.68 0 1 1 0-767.36 383.68 383.68 0 0 1 0 767.36z m0-607.488a48 48 0 1 0-0.064 95.936A48 48 0 0 0 512 160.192z m47.936 201.408c0-25.6-22.4-48-47.936-48-25.6 0-48 22.4-48 48V563.072c0 25.536 22.4 48 48 48 25.536 0 47.936-19.2 47.936-48V361.6z"  horiz-adv-x="1024" />

    
    <glyph glyph-name="chaojiwangyinpiliangzhuanzhang" unicode="&#58898;" d="M259.846244 442.942439h640.62439c47.32878 0 86.065951-42.20878 86.065951-93.858341v-358.250147C986.536585-60.765659 947.799415-103.02439 900.470634-103.02439H259.846244c-47.32878 0-86.016 42.258732-86.016 93.858341V349.084098c0 51.649561 38.68722 93.858341 86.016 93.858341zM227.228098 844.125659c-30.969756 5.994146-61.365073-2.347707-85.291708-20.629854-24.026537-18.20722-41.634341-46.454634-47.203902-80.221659L39.286634 402.981463a132.745366 132.745366 0 0 1 18.906537-93.109073c9.990244-15.684683 23.352195-28.89678 39.161756-38.212683v77.424391c0 8.666537 0.574439 17.158244 1.673366 25.525073a65.910634 65.910634 0 0 0 0.449561 16.658731L154.998634 731.610537c2.497561 15.634732 10.739512 28.672 21.928586 37.163707a49.201951 49.201951 0 0 0 39.53639 9.665561l569.818536-110.567025c14.336-2.722341 26.324293-11.66361 34.091708-23.876682 7.79239-12.138146 11.363902-27.548098 8.791414-43.207805l-6.493658-39.811122L235.91961 674.791024 210.294634 517.894244a150.278244 150.278244 0 0 0 49.55161 8.491707h619.370146l10.190049 62.738732a133.619512 133.619512 0 0 1-18.856585 93.084097c-16.808585 26.099512-42.633366 45.380683-73.578147 51.37483L227.228098 844.125659z m494.167414-469.241757c-46.204878 0-83.668293-40.810146-83.668292-91.260878 0-50.40078 37.463415-91.310829 83.668292-91.310829 20.754732 0 39.786146 8.241951 54.371903 21.878634a79.422439 79.422439 0 0 1 54.371902-21.878634c46.204878 0 83.718244 40.910049 83.718244 91.310829 0 50.450732-37.48839 91.260878-83.718244 91.260878-20.729756 0-39.71122-8.192-54.371902-21.853658a79.222634 79.222634 0 0 1-54.371903 21.853658z m61.365073-305.027122v-62.039414h140.487805v62.039414h-140.487805z m-176.777365 0v-62.039414h140.51278v62.039414h-140.51278z m-182.147122 0v-62.039414h140.487804v62.039414H423.836098z m-176.827318 0v-62.039414h140.487805v62.039414H246.983805z"  horiz-adv-x="1024" />

    
    <glyph glyph-name="piliangzhuanzhang" unicode="&#58899;" d="M488.1664 253.696L68.6592 531.6864c-17.4592 17.3568-17.4592 52.1216 0 69.4784L488.192 861.7216C496.896 870.4 505.6 870.4 514.3808 870.4c8.7296 0 17.4592 0 26.2144-8.704l419.4816-260.5568c17.4848-17.3568 17.4848-43.4176 0-60.8L540.5952 253.7216c-11.1872-7.3728-40.192-7.5008-52.4288 0z m14.08-375.04L42.496 182.7072c-17.4848 8.6784-22.9888 35.328-8.7552 54.6816 21.7856 24.32 45.3632 15.9232 50.56 12.3648l430.08-293.3504 432.7168 295.168c12.288 8.3456 35.6608 5.7088 47.9488-14.1824 6.912-11.1616 7.9872-33.536-8.704-46.0032L528.4608-121.344c-8.7552-5.76-18.1248-5.8112-26.2144 0z m0 179.2L42.496 361.9072c-17.4848 8.6784-22.9888 35.328-8.7552 54.6816 21.7856 24.32 45.3632 15.9232 50.56 12.3648l430.08-293.3504 432.7168 295.168c12.288 8.3456 35.6608 5.7088 47.9488-14.1824 6.912-11.1616 7.9872-33.536-8.704-46.0032L528.4608 57.856c-8.7552-5.76-18.1248-5.8112-26.2144 0z"  horiz-adv-x="1024" />

    
    <glyph glyph-name="xunhuanxuyuezhuanzhang" unicode="&#58900;" d="M678.5792 741.504c-135.1424 59.1616-296.448 39.8592-414.6176-62.8736L199.6288 752.512C346.88 880.5376 548.5568 904.8576 716.8512 831.6928L744.192 896l80.2304-161.664-172.032-54.5792 26.2144 61.7472z m-306.944-653.2608l-26.2144-61.7472c135.1424-59.1616 296.448-39.8592 414.6432 62.8736l64.3328-73.8816c-147.2768-128.0256-348.9536-152.3456-517.248-79.1808L279.8592-128l-80.256 161.664 172.032 54.5792zM154.496 551.4752c-59.136-135.1168-39.8592-296.448 62.848-414.6176l-73.8816-64.3328c-128 147.2768-152.32 348.9536-79.1552 517.248L0 617.0624l161.664 80.256 54.5792-172.032-61.7472 26.1888z m805.1968-371.456L1024 152.7808l-161.664-80.256-54.5792 172.032 61.7472-26.2144c59.1616 135.1424 39.8592 296.448-62.848 414.6432l73.856 64.3328c128.0512-147.2768 152.3456-348.9536 79.1808-517.248zM332.8 588.8c-8.0896 19.9936-1.8432 35.84 18.688 47.5392 20.5312 11.6992 37.8624 7.0912 52.0192-13.7984l103.296-161.9968 106.3936 161.9968c12.672 20.0448 29.184 25.4976 49.6128 16.384 20.4032-9.1136 26.3936-25.8048 17.9968-50.1248l-105.216-160.256h87.2192c8.9344-7.2192 13.3888-16.512 13.3888-27.904 0-11.3664-4.4544-20.608-13.3888-27.7248l-113.1008-0.6656v-45.9008h113.1008c9.0624-6.9632 13.5424-16.2048 13.3888-27.776-0.1536-11.5456-4.608-20.8384-13.3888-27.8272h-113.1008V153.6c2.2016-33.4848-11.776-50.5344-41.8816-51.2-30.1056-0.6656-44.7744 16.384-43.9552 51.2v117.1456h-112.384c-11.6224 5.8624-17.4592 15.1296-17.4592 27.8272s5.8368 21.9648 17.4592 27.776h112.384l-0.6656 46.592H351.488c-11.2128 7.2448-17.024 16.4864-17.4592 27.6992-0.4096 11.2384 5.376 20.5312 17.4592 27.904h86.528L332.8 588.8z"  horiz-adv-x="1024" />

    
    <glyph glyph-name="tiaojianzhuanzhang" unicode="&#58901;" d="M102.4 120.8064v-74.752a38.4 38.4 0 0 0-76.8 0V343.9104c0 0.896 0.0512 1.792 0.128 2.7136-2.048 35.0464 21.7856 36.9408 49.408 28.7488 27.6736-8.2432 44.3904-27.7248 56.1664-46.6688 18.6624-35.9424 39.04-93.7472 39.04-93.7472 45.696-105.0112 138.3168-187.8016 258.1248-215.5264 200.8064-46.5408 406.144 79.104 452.096 280.5248 0.9216 4.096 0.896 3.4816 2.5344 12.3648 1.6384 8.9088 4.3008 22.4 22.016 16.384 17.6384-6.0928 60.7232-18.432 74.1888-22.016 13.44-3.5072 11.9552-8.6528 10.24-20.9408-0.4608-3.7376-1.28-7.168-2.0736-10.7008-60.1088-261.888-321.7664-425.344-584.3968-364.9024A486.8608 486.8608 0 0 0 102.4 120.8064zM921.6 647.7312a486.7072 486.7072 0 0 1-300.8768 211.0464C363.9552 917.8368 96.4352 745.2416 44.2112 489.1392c-4.608-22.5536-0.512-20.736 14.72-27.7248 13.3632-6.144 50.2272-20.48 61.4912-20.9664 16.64-0.64 19.4048 19.9168 19.84 21.632C186.1376 663.5008 393.856 795.4688 594.6368 748.9536c125.8496-29.184 221.6704-119.04 264.6272-231.6544 29.696-55.8848 26.9568-145.8688 111.2832-132.992 15.36 0.128 29.4144 9.4208 27.7248 35.2256 0.1024 0.9728 0.128 1.9712 0.128 2.9696V720.5888a38.4 38.4 0 0 1-76.8 0v-72.8576z m-191.5392-167.1424l-123.648 107.2128a5.8368 5.8368 0 0 1-9.0624-4.9152v-70.4512H315.4432c-18.6112 0-33.8432-15.2576-33.8432-33.92 0-18.688 15.232-33.9456 33.8432-33.9456h281.9072v-76.0832c0-4.7104 5.1712-7.5264 9.0624-4.9152l123.648 107.1872a5.9648 5.9648 0 0 1 0 9.8304zM284.2112 265.984l123.648-107.1872a5.8368 5.8368 0 0 1 9.0624 4.9408v64.768h281.9072c18.6112 0 33.8176 15.2576 33.8176 33.92 0 18.688-15.2064 33.9456-33.792 33.9456H416.896v81.7408a5.8368 5.8368 0 0 1-9.0624 4.9152l-123.648-107.1872a5.9648 5.9648 0 0 1 0-9.856z"  horiz-adv-x="1024" />

    
    <glyph glyph-name="zhuanzhanghuikuan" unicode="&#58902;" d="M959.363122 371.811902c-31.96878-0.274732-188.690732 88.438634-193.610927 93.059122-11.88839 11.114146-7.442732 25.000585 4.745366 26.848781 12.088195 1.898146 80.296585 9.84039 80.296585 9.84039-41.934049 109.867707-135.417756 197.557073-258.197853 226.029268C396.712585 772.920195 194.085463 644.170927 149.354146 447.687805c-0.424585-1.673366-3.121951-21.72878-19.356097-21.10439-10.989268 0.449561-46.954146 14.485854-59.991415 20.455024-14.860488 6.843317-18.856585 5.045073-14.385951 27.048585C106.570927 723.943024 367.541073 892.328585 618.046439 834.734829c207.872-47.828293 352.330927-224.705561 368.140488-426.183805 2.697366-26.973659-11.363902-36.614244-26.823805-36.739122zM258.422634 265.465756c16.309073-10.24 12.437854-30.794927-5.544585-32.618146-17.957463-1.873171-74.227512-6.718439-74.227512-6.718439 44.606439-102.449951 134.968195-183.221073 251.854048-210.269659 195.883707-45.405659 396.238049 77.174634 441.044293 273.682732 0.924098 3.996098 0.874146 3.396683 2.497561 12.063219 1.598439 8.691512 4.195902 21.853659 21.479024 15.984391 17.208195-5.944195 59.242146-17.982439 72.379317-21.479025 13.112195-3.421659 11.638634-8.441756 9.990244-20.430049-0.449561-3.646439-1.24878-6.993171-2.048-10.439804-58.617756-255.500488-313.893463-414.969756-570.118244-356.002342C198.056585-42.983024 53.697561 133.469659 37.588293 334.648195c-2.197854 34.59122 22.727805 41.634341 48.177951 28.472195 20.030439-10.439805 156.297366-87.364683 172.65639-97.654634zM337.170732 571.317073c-7.892293 19.505951-1.798244 34.965854 18.232195 46.379707 20.030439 11.413854 36.938927 6.918244 50.750439-13.461853l100.776585-158.045659 103.798634 158.045659c12.362927 19.555902 28.472195 24.875707 48.402732 15.98439 19.905561-8.891317 25.749854-25.175415 17.557854-48.902244l-102.649756-156.347317h85.091902c8.716488-7.043122 13.062244-16.109268 13.062244-27.223415 0-11.089171-4.345756-20.105366-13.062244-27.048585l-110.342244-0.649366v-44.781268h110.342244c8.841366-6.793366 13.212098-15.809561 13.062244-27.098537-0.149854-11.264-4.49561-20.330146-13.062244-27.148487h-110.342244V146.731707c2.147902-32.668098-11.48878-49.301854-40.860097-49.951219-29.371317-0.649366-43.682341 15.98439-42.883122 49.951219v114.288391h-109.642927c-11.338927 5.719415-17.033366 14.760585-17.033366 27.148487s5.694439 21.429073 17.033366 27.098537h109.642927l-0.649366 45.45561H355.402927c-10.939317 7.068098-16.60878 16.084293-17.033366 27.023609-0.39961 10.964293 5.244878 20.030439 17.033366 27.223415h84.417561L337.170732 571.317073z"  horiz-adv-x="1024" />

    
    <glyph glyph-name="yinliang" unicode="&#59178;" d="M509.227 728.277L286.784 543.936c-16.704-13.867-43.179-23.403-64.896-23.403h-51.157A42.667 42.667 0 0 1 128 477.91v-187.434c0-23.467 19.179-42.624 42.73-42.624h51.137c21.802 0 48.17-9.536 64.896-23.403l222.421-184.32V728.256zM259.54 191.573c-9.045 7.51-25.77 13.59-37.674 13.59H170.73a85.419 85.419 0 0 0-85.398 85.312V477.909a85.333 85.333 0 0 0 85.398 85.291h51.136c11.776 0 28.629 6.08 37.674 13.59l259.584 215.103c18.091 14.998 32.747 8.171 32.747-15.402v-784.64c0-23.488-14.677-30.379-32.747-15.403L259.563 191.595z m436.118 4.822a21.333 21.333 0 1 0-26.027 33.834 196.608 196.608 0 0 1 77.035 156.267c0 57.408-29.27 112.32-77.483 151.637a21.333 21.333 0 1 0 26.965 33.067c57.643-46.997 93.184-113.685 93.184-184.704 0-75.37-35.05-144.981-93.653-190.08z m64-170.667a21.333 21.333 0 1 0-26.027 33.835A414.507 414.507 0 0 1 896 388.97c0 121.642-61.696 237.354-162.816 319.829a21.333 21.333 0 1 0 26.965 33.067C870.7 651.69 938.667 524.224 938.667 388.97A457.173 457.173 0 0 0 759.68 25.749z"  horiz-adv-x="1024" />

    
    <glyph glyph-name="jinrongjigoutouzhimingxi" unicode="&#58917;" d="M25.6 844.8v-921.6c0-28.16 23.04-51.2 51.2-51.2h852.48c28.16 0 51.2 23.04 51.2 51.2V844.8c0 28.16-23.04 51.2-51.2 51.2H76.8C48.64 896 25.6 872.96 25.6 844.8z m860.16-883.2H120.32V803.84h765.44v-842.24zM261.12 611.8399999999999v-64h69.12v64h-69.12z m138.24 0v-64h348.16v64H399.36z m-138.24-194.56v-64h69.12v64h-69.12z m138.24 0v-64h348.16v64H399.36z m-138.24-194.56v-64h69.12v64h-69.12z m138.24 0v-64h348.16v64H399.36z"  horiz-adv-x="1024" />

    
    <glyph glyph-name="peiduizhanghuguanli" unicode="&#58918;" d="M952.32 896H212.48c-20.48 0-38.4-17.92-38.4-38.4v-107.52H61.44c-20.48 0-38.4-17.92-38.4-38.4v-801.28c0-20.48 17.92-38.4 38.4-38.4h739.84c20.48 0 38.4 17.92 38.4 38.4V25.600000000000023h112.64c20.48 0 38.4 17.92 38.4 38.4v793.6C988.16 878.08 972.8 896 952.32 896zM102.4 663.04h655.36v-711.68H102.4V663.04z m808.96-563.2h-71.68V706.56c0 20.48-15.36 38.4-35.84 38.4H256V816.64h655.36v-716.8z m-243.2 445.44H217.6c-20.48 0-38.4-17.92-38.4-40.96 0-23.04 17.92-40.96 38.4-40.96h450.56c20.48 0 38.4 17.92 38.4 40.96 0 23.04-15.36 40.96-38.4 40.96z m0-189.44H217.6c-20.48 0-38.4-17.92-38.4-40.96 0-23.04 17.92-40.96 38.4-40.96h450.56c20.48 0 38.4 17.92 38.4 40.96 0 23.04-15.36 40.96-38.4 40.96z m0-186.88H217.6c-20.48 0-38.4-17.92-38.4-40.96s17.92-40.96 38.4-40.96h450.56c20.48 0 38.4 17.92 38.4 40.96s-15.36 40.96-38.4 40.96z"  horiz-adv-x="1024" />

    
    <glyph glyph-name="jiaoyimingxichaxun" unicode="&#58919;" d="M993.28-89.60000000000002l-10.24-10.24c-10.24-10.24-33.28-10.24-43.52 0l-74.24 66.56c-28.16-17.92-58.88-28.16-92.16-28.16-97.28 0-174.08 79.36-174.08 174.08 0 97.28 76.8 174.08 174.08 174.08s174.08-79.36 174.08-174.08c0-35.84-10.24-66.56-28.16-94.72l74.24-66.56c12.8-7.68 10.24-28.16 0-40.96z m-220.16 302.08c-53.76 0-97.28-43.52-97.28-99.84 0-53.76 43.52-99.84 97.28-99.84s97.28 43.52 97.28 99.84-43.52 99.84-97.28 99.84z m104.96 135.68V780.8H140.8v-716.8h378.88c0-38.4 30.72-69.12 43.52-89.6H115.2c-33.28 0-61.44 28.16-61.44 64v768C53.76 842.24 81.92 870.4 115.2 870.4h791.04c33.28 0 61.44-28.16 61.44-64v-522.24c-23.04 20.48-58.88 51.2-89.6 64zM268.8 660.48h486.4c20.48 0 38.4-17.92 38.4-38.4s-17.92-38.4-38.4-38.4h-486.4c-20.48 0-38.4 17.92-38.4 38.4 0 23.04 17.92 38.4 38.4 38.4z m0-179.2h486.4c20.48 0 38.4-17.92 38.4-38.4s-17.92-38.4-38.4-38.4h-486.4c-20.48 0-38.4 17.92-38.4 38.4 0 23.04 17.92 38.4 38.4 38.4z"  horiz-adv-x="1024" />

    
    <glyph glyph-name="qiyedaifuchaxun" unicode="&#58920;" d="M994.0992-91.8528c-2.2272-2.4832-8.0896-8.448-10.752-10.7264-10.496-9.1648-33.3824-9.344-42.8032 0l-75.008 67.456a172.8 172.8 0 0 0-93.2864-27.3152c-96.2048 0-174.1568 78.1312-174.1568 174.464 0 96.3584 77.952 174.464 174.1568 174.464 96.1792 0 174.1312-78.1056 174.1312-174.464 0-34.6112-10.1888-66.816-27.5456-93.952l75.264-67.0208c11.2128-11.136 10.5728-31.0272 0-42.9056z m-221.8496 302.4896a98.56 98.56 0 0 1-98.4576-98.6112 98.5088 98.5088 0 0 1 98.4576-98.6112 98.5088 98.5088 0 0 1 98.432 98.6112 98.5344 98.5344 0 0 1-98.432 98.6112z m105.2416 138.1888V781.696H140.16v-717.824h378.4448c0-37.4784 30.72-69.6576 42.496-89.472H112C78.4128-25.6 51.2 3.0464 51.2 38.4v768C51.2 841.7536 78.4128 870.4 112 870.4H902.4c33.5872 0 60.8-28.6464 60.8-64v-523.4432c-17.3568 21.632-54.6304 52.992-85.7088 65.8688zM307.2 640c-8.0896 19.9936-1.8432 35.84 18.688 47.5392 20.5312 11.6992 37.8624 7.0912 52.0192-13.7984l103.296-161.9968 106.3936 161.9968c12.672 20.0448 29.184 25.4976 49.6128 16.384 20.4032-9.1136 26.3936-25.8048 17.9968-50.1248l-105.216-160.256h87.2192c8.9344-7.2192 13.3888-16.512 13.3888-27.904 0-11.3664-4.4544-20.608-13.3888-27.7248l-113.1008-0.6656v-45.9008h113.1008c9.0624-6.9632 13.5424-16.2048 13.3888-27.776-0.1536-11.5456-4.608-20.8384-13.3888-27.8272h-113.1008V204.8c2.2016-33.4848-11.776-50.5344-41.8816-51.2-30.1056-0.6656-44.7744 16.384-43.9552 51.2v117.1456h-112.384c-11.6224 5.8624-17.4592 15.1296-17.4592 27.8272s5.8368 21.9648 17.4592 27.776h112.384l-0.6656 46.592H325.888c-11.2128 7.2448-17.024 16.4864-17.4592 27.6992-0.4096 11.2384 5.376 20.5312 17.4592 27.904h86.528L307.2 640z"  horiz-adv-x="1024" />

    
    <glyph glyph-name="changyongshoukuanrenguanli" unicode="&#58921;" d="M804.0448 266.496c43.0848-20.5824 44.672-17.28 58.7776-32.5632 16.64-14.2592 13.568-46.7968 13.9776-75.7504H400.1024s-0.3072-7.9872-0.128 11.3408c-0.128 64.5376-2.7648 61.4656 71.552 96.9472 25.344 12.1088 105.4208 47.6928 105.4208 47.6928s4.0448 18.1248 0 31.7952c-18.8672 10.9312-38.1952 59.4432-40.5504 79.4624-17.5616 7.936-22.784 41.6768-24.32 47.6928-1.4592 5.5552 1.5616 21.7344 13.312 22.656a105.4208 105.4208 0 0 0-5.248 32.9728c0 2.6624 0.2304 5.2992 0.4352 7.936-0.2048 2.6368-0.4352 5.2736-0.4352 7.936 0 61.44 52.6592 95.3856 117.5808 95.3856 64.9472 0 117.5808-33.8944 117.5808-95.36 0-2.688-0.2048-5.3248-0.4352-7.936 0.2304-2.6624 0.4352-5.2992 0.4352-7.9616 0-11.4688-1.8432-22.5792-5.248-32.9728 11.8016-0.9216 14.7968-17.1008 13.3376-22.656-1.536-6.016-6.7584-39.7568-24.32-47.6928-2.3808-20.0192-21.6576-68.5312-40.576-79.4624-4.992-14.8992 0-31.7952 0-31.7952s80.2304-35.6096 105.5488-47.6928z m119.6032-293.888H323.1232V795.392H923.648v-822.784z m-649.5232 0H100.352v73.2672h81.4848c20.5824 0 37.504 16.9216 37.504 37.76 0 20.5824-16.896 37.248-37.504 37.248H100.352v125.4912h81.4848c20.5824 0 37.504 16.6656 37.504 37.76a37.632 37.632 0 0 1-37.504 37.248H100.352v125.4912h81.4848c20.5824 0 37.504 16.64 37.504 37.248 0 20.5824-16.896 37.504-37.504 37.504H100.352V647.1168h81.4848c20.5824 0 37.504 16.4096 37.504 37.504 0 20.5824-16.896 37.248-37.504 37.248H100.352V795.392h173.7728v-822.784zM960.896 870.4H63.36C42.496 870.4 25.6 853.7344 25.6 832.896v-897.792C25.6-85.76 42.496-102.4 63.3344-102.4h897.5616c20.5824 0 37.76 16.6656 37.76 37.504V832.896C998.656 853.76 981.504 870.4 960.896 870.4z"  horiz-adv-x="1024" />

    
    <glyph glyph-name="qianyuejieyue" unicode="&#58922;" d="M1011.94215 693.017189L479.564816 160.665456H287.744112v191.820704L820.095846 884.863494A38.118381 38.118381 0 0 0 847.231832 895.999488c9.830395 0 19.63519-3.660798 27.135987-11.135994l137.574331-137.574332c7.475196-7.500796 11.135994-17.305591 11.135994-27.135986 0-9.804795-3.660798-19.63519-11.135994-27.135987zM847.231832 784.127544L383.641664 320.537376v-63.974368h63.948768l463.590168 463.615768-63.948768 63.923168zM495.564808 736.153168H95.923408v-767.308416H863.231824v399.6158a47.948776 47.948776 0 0 0 95.897552 0v-431.615784a63.948768 63.948768 0 0 0-63.948768-63.923168H63.949024A63.948768 63.948768 0 0 0 0.000256-63.129632V768.101952a63.948768 63.948768 0 0 0 63.948768 63.948768h431.615784a47.974376 47.974376 0 0 0 0-95.897552z"  horiz-adv-x="1024" />

    
    <glyph glyph-name="zhanghuxinxichaxun" unicode="&#58923;" d="M993.28-89.60000000000002l-10.24-10.24c-10.24-10.24-33.28-10.24-43.52 0l-74.24 66.56c-28.16-17.92-58.88-28.16-92.16-28.16-97.28 0-174.08 79.36-174.08 174.08 0 97.28 76.8 174.08 174.08 174.08s174.08-79.36 174.08-174.08c0-35.84-10.24-66.56-28.16-94.72l74.24-66.56c12.8-7.68 10.24-28.16 0-40.96z m-220.16 302.08c-53.76 0-97.28-43.52-97.28-99.84 0-53.76 43.52-99.84 97.28-99.84s97.28 43.52 97.28 99.84-43.52 99.84-97.28 99.84z m-250.88-35.84h-243.2c-17.92 0-33.28 15.36-33.28 33.28s15.36 33.28 33.28 33.28h266.24c-12.8-20.48-20.48-43.52-23.04-66.56z m92.16 217.6c33.28-15.36 53.76-23.04 64-33.28-33.28-12.8-64-28.16-89.6-51.2H273.92v7.68c0 51.2 17.92 48.64 76.8 76.8 20.48 10.24 81.92 38.4 81.92 38.4s2.56 15.36 0 25.6c-15.36 7.68-30.72 46.08-30.72 61.44-12.8 5.12-17.92 33.28-17.92 38.4 0 5.12 0 17.92 10.24 17.92-2.56 7.68-5.12 17.92-5.12 25.6v5.12 5.12c0 48.64 40.96 74.24 92.16 74.24s92.16-25.6 92.16-74.24v-10.24c0-10.24-2.56-17.92-5.12-25.6 10.24 0 12.8-12.8 10.24-17.92 0-5.12-5.12-30.72-17.92-38.4-2.56-15.36-17.92-53.76-30.72-61.44-5.12-12.8 0-25.6 0-25.6s64-28.16 84.48-38.4z m263.68-46.08V780.8H140.8v-716.8h378.88c0-38.4 30.72-69.12 43.52-89.6H115.2c-33.28 0-61.44 28.16-61.44 64v768C53.76 842.24 81.92 870.4 115.2 870.4h791.04c33.28 0 61.44-28.16 61.44-64v-522.24c-23.04 20.48-58.88 51.2-89.6 64z"  horiz-adv-x="1024" />

    
    <glyph glyph-name="zhanghuduizhang" unicode="&#58924;" d="M952.1408 896H211.6096c-20.5568 0-37.1968-17.1776-37.1968-38.4v-107.8784h-111.616C42.2656 749.7216 25.6 732.3904 25.6 710.9888v-800.256C25.6-110.6688 42.24-128 62.7968-128H803.328c20.5312 0 37.1968 17.3312 37.1968 38.7328V25.6h111.616c20.5312 0 37.1968 17.1776 37.1968 38.4v793.6c0 21.2224-16.6656 38.4-37.1968 38.4zM102.4 669.0304h656.5376V-44.9024H102.4V669.0304z m810.1376-568.8832h-72.96V705.3312c0 21.7088-16.3584 39.296-36.48 39.296H256V815.1552h656.5376v-715.008z m-653.1072 415.232c-8.0896 21.0432-1.8688 37.7344 18.688 50.0224 20.5056 12.3136 37.8624 7.4752 51.9936-14.4896l103.3216-170.5472 106.368 170.5472c12.672 21.0688 29.2096 26.8032 49.6128 17.2288 20.4032-9.6 26.4192-27.1872 17.9968-52.7616l-105.1904-168.704h87.1936c8.96-7.6032 13.4144-17.3824 13.4144-29.3632 0-11.9808-4.48-21.7088-13.4144-29.184l-113.0752-0.7168v-48.3072h113.0752c9.088-7.3216 13.568-17.0752 13.4144-29.2352-0.1536-12.16-4.608-21.9392-13.4144-29.312h-113.0752v-123.2896c2.2016-35.2256-11.776-53.1968-41.8816-53.888-30.1312-0.6912-44.7744 17.2544-43.9552 53.888v123.2896h-112.384c-11.648 6.1952-17.4592 15.9488-17.4592 29.312s5.8112 23.1168 17.4336 29.2352h112.4096l-0.6912 49.024h-111.7184c-11.1872 7.6544-16.9984 17.3824-17.408 29.184-0.4608 11.8272 5.376 21.6064 17.408 29.3632h86.528l-105.216 168.704z"  horiz-adv-x="1024" />

    
    <glyph glyph-name="zhanghuyuequshifenxi" unicode="&#58925;" d="M540.16 76.8h-58.88c-10.24 0-17.92-10.24-17.92-23.04v-89.6h-166.4c-25.6 0-46.08-20.48-46.08-46.08s20.48-46.08 46.08-46.08h430.08c25.6 0 46.08 20.48 46.08 46.08s-20.48 46.08-46.08 46.08h-166.4v89.6c0 12.8-10.24 23.04-20.48 23.04zM89.6 844.8C53.76 844.8 25.6 814.08 25.6 778.24v-627.2c0-35.84 28.16-66.56 64-66.56h844.8c35.84 0 64 30.72 64 66.56V778.24C998.4 814.08 970.24 844.8 934.4 844.8h-844.8z m798.72-668.16H135.68c-10.24 0-20.48 10.24-20.48 20.48V732.16c0 10.24 7.68 20.48 20.48 20.48h755.2c10.24 0 20.48-10.24 20.48-20.48v-535.04c-2.56-12.8-10.24-20.48-23.04-20.48zM473.6 655.36c-110.08 0-192-94.72-192-202.24 0-110.08 89.6-194.56 202.24-194.56 110.08 0 202.24 81.92 202.24 192h-209.92c-2.56 0 0 204.8-2.56 204.8z m38.4 25.6c2.56 0 0-204.8 0-204.8h209.92c0 110.08-99.84 204.8-209.92 204.8z"  horiz-adv-x="1024" />

    
    <glyph glyph-name="kehushouxufeimingxifenxi" unicode="&#58926;" d="M724.48 435.2L665.6 494.08l176.64 28.16-12.8-192-61.44 61.44c-58.88-58.88-156.16-153.6-174.08-153.6-25.6-2.56-117.76 97.28-161.28 143.36l-209.92-209.92c-10.24-10.24-30.72-10.24-40.96 0-10.24 10.24-10.24 30.72 0 40.96l230.4 230.4c10.24 12.8 30.72 12.8 43.52 0v-2.56l7.68-7.68v-2.56c33.28-33.28 122.88-135.68 122.88-135.68 5.12 5.12 87.04 87.04 138.24 140.8zM768 742.4h166.4C970.24 742.4 998.4 711.68 998.4 675.84v-627.2c0-35.84-28.16-66.56-64-66.56h-844.8c-35.84 0-64 30.72-64 66.56V675.84C25.6 711.68 53.76 742.4 89.6 742.4H256V819.2c0 28.16 23.04 51.2 51.2 51.2s51.2-23.04 51.2-51.2v-76.8h307.2V819.2c0 28.16 23.04 51.2 51.2 51.2s51.2-23.04 51.2-51.2v-76.8z m120.32-668.16c10.24 0 20.48 10.24 20.48 20.48V629.76c0 10.24-7.68 20.48-20.48 20.48H135.68c-10.24 0-20.48-10.24-20.48-20.48v-535.04c0-10.24 7.68-20.48 20.48-20.48h752.64z"  horiz-adv-x="1024" />

    
    <glyph glyph-name="chanpinjiaoyimingxifenxi" unicode="&#58927;" d="M696.32-10.24c-2.56 7.68-5.12 17.92-5.12 25.6V509.44c0 35.84 28.16 64 64 64s64-28.16 64-64v-494.08c0-10.24-2.56-17.92-5.12-25.6h120.32c20.48 0 38.4-17.92 38.4-38.4s-17.92-38.4-38.4-38.4h-870.4c-20.48 0-38.4 17.92-38.4 38.4s17.92 38.4 38.4 38.4H179.2V320C179.2 355.84 207.36 384 243.2 384s64-28.16 64-64V-10.24h128V458.24c0 35.84 28.16 64 64 64s64-28.16 64-64v-468.48h133.12z m94.72 788.48l-51.2 51.2 176.64 30.72-12.8-194.56-66.56 69.12c-71.68-58.88-194.56-161.28-220.16-161.28-33.28-2.56-143.36 97.28-197.12 145.92L161.28 506.88c-12.8-10.24-35.84-10.24-51.2 0-12.8 10.24-12.8 30.72 0 40.96l284.16 235.52c12.8 12.8 35.84 12.8 51.2 0 0 0 2.56 0 2.56-2.56l12.8-12.8 2.56-2.56c38.4-35.84 151.04-138.24 151.04-138.24 2.56 2.56 115.2 97.28 176.64 151.04z"  horiz-adv-x="1024" />

    
    <glyph glyph-name="zijinshouzhiqushifenxi" unicode="&#58928;" d="M867.84 742.4c69.12 0 125.44-51.2 130.56-117.76 5.12-66.56-40.96-125.44-110.08-138.24-15.36-2.56-30.72-2.56-46.08 0-5.12 2.56-7.68 0-10.24-5.12l-145.92-245.76c-5.12-7.68 0-10.24 5.12-12.8 33.28-25.6 48.64-61.44 43.52-102.4-5.12-43.52-30.72-74.24-71.68-89.6-43.52-15.36-94.72-2.56-125.44 33.28-30.72 35.84-33.28 87.04-10.24 125.44 5.12 7.68 5.12 10.24-2.56 15.36-69.12 48.64-135.68 99.84-204.8 148.48-5.12 5.12-10.24 5.12-15.36 2.56-15.36-7.68-33.28-10.24-48.64-7.68-7.68 0-10.24-2.56-12.8-7.68-20.48-35.84-40.96-69.12-61.44-104.96-5.12-7.68-5.12-10.24 0-17.92 23.04-28.16 25.6-61.44 7.68-92.16-15.36-30.72-51.2-48.64-84.48-43.52-35.84 5.12-61.44 25.6-71.68 58.88-20.48 61.44 33.28 120.32 97.28 107.52 7.68-2.56 10.24 0 12.8 7.68 17.92 33.28 38.4 66.56 58.88 99.84 5.12 7.68 5.12 10.24-2.56 17.92-30.72 28.16-40.96 71.68-23.04 110.08 17.92 38.4 56.32 61.44 97.28 56.32 40.96-2.56 74.24-30.72 87.04-69.12 7.68-25.6 5.12-51.2-10.24-74.24-2.56-5.12-2.56-7.68 2.56-12.8 69.12-51.2 138.24-99.84 204.8-151.04 5.12-2.56 7.68-5.12 12.8-2.56 17.92 10.24 40.96 15.36 61.44 12.8 7.68 0 10.24 2.56 15.36 7.68 48.64 81.92 94.72 161.28 143.36 243.2 5.12 7.68 5.12 10.24-2.56 15.36-43.52 33.28-61.44 92.16-43.52 143.36 17.92 53.76 66.56 89.6 122.88 89.6z"  horiz-adv-x="1024" />

    
    <glyph glyph-name="zijinguijimingxifenxi" unicode="&#58929;" d="M243.2 25.6C207.36 25.6 179.2 53.76 179.2 89.6v665.6C179.2 791.04 207.36 819.2 243.2 819.2S307.2 791.04 307.2 755.2v-665.6c0-35.84-28.16-64-64-64z m256 0c-35.84 0-64 28.16-64 64V596.48c0 35.84 28.16 64 64 64s64-28.16 64-64v-506.88c0-35.84-28.16-64-64-64z m256 0c-35.84 0-64 28.16-64 64V468.48c0 35.84 28.16 64 64 64s64-28.16 64-64v-378.88c0-35.84-28.16-64-64-64z m-691.2-25.6h870.4c20.48 0 38.4-17.92 38.4-38.4s-17.92-38.4-38.4-38.4h-870.4c-20.48 0-38.4 17.92-38.4 38.4S43.52 0 64 0z"  horiz-adv-x="1024" />

    
    <glyph glyph-name="zhanghujiaoyimingxifenxi" unicode="&#58930;" d="M979.423006 792.089162H543.504367V832.639733c0 20.275286-15.206464 35.48175-35.481749 35.481749-20.275286 0-35.48175-15.206464-35.48175-35.481749v-40.550571H36.62223C16.346944 792.089162 1.14048 774.348287 1.14048 754.073001v-671.618832c0-20.275286 15.206464-38.01616 35.48175-38.01616h433.384227v-10.137643L330.61387-54.404008c-17.740875-12.672053-25.344107-35.48175-15.206465-53.222625 10.137643-17.740875 30.412928-25.344107 48.153804-15.206464h2.53441l129.254945 81.101142h22.809697l129.254945-81.101142c17.740875-10.137643 38.01616-5.068821 50.688213 12.672054v2.53441c10.137643 20.275286 2.534411 43.084982-15.206464 53.222625L543.504367 34.300366v10.137643h433.384228c20.275286 0 35.48175 17.740875 35.48175 38.01616V754.073001c2.534411 20.275286-12.672053 38.01616-32.947339 38.016161z m-63.360267-646.274726H99.982497V690.712734h818.614652v-544.898298z m-68.429089 463.797156c12.672053-15.206464 12.672053-40.550571-2.534411-55.757035l-329.473389-304.129283-185.01198 167.271106-106.445249-93.773196c-15.206464-12.672053-38.01616-12.672053-50.688214 2.534411v2.534411c-12.672053 17.740875-10.137643 40.550571 5.068821 55.757035l154.599052 134.323766 185.011981-167.271105 283.853997 263.578712c7.603232 10.137643 30.412928 10.137643 45.619392-5.068822-2.534411 0 0 0 0 0z"  horiz-adv-x="1024" />

    
    <glyph glyph-name="duojizhangbuyuefenbutongji" unicode="&#58931;" d="M906.24 896c33.28 0 61.44-28.16 61.44-61.44v-901.12c0-33.28-28.16-61.44-61.44-61.44h-742.4C130.56-128 102.4-99.84 102.4-66.56v202.24h-15.36c-20.48 0-35.84 15.36-35.84 35.84 0 20.48 15.36 35.84 35.84 35.84H102.4v128h-15.36c-20.48 0-35.84 15.36-35.84 35.84 0 20.48 15.36 35.84 35.84 35.84H102.4v145.92h-15.36c-20.48 0-35.84 15.36-35.84 35.84s15.36 35.84 35.84 35.84H102.4V834.56C102.4 867.84 130.56 896 163.84 896h742.4z m-12.8-949.76V821.76h-716.8v-189.44h15.36c20.48 0 35.84-15.36 35.84-35.84s-15.36-35.84-35.84-35.84h-15.36v-145.92h15.36c20.48 0 35.84-15.36 35.84-35.84 0-20.48-15.36-35.84-35.84-35.84h-15.36v-128h15.36c20.48 0 35.84-15.36 35.84-35.84 0-20.48-15.36-35.84-35.84-35.84h-15.36v-189.44h716.8z m-570.88 253.44c-10.24 0-17.92 7.68-17.92 17.92 0 10.24 7.68 17.92 17.92 17.92h424.96c10.24 0 17.92-7.68 17.92-17.92 0-10.24-7.68-17.92-17.92-17.92H322.56z m0-87.04c-10.24 0-17.92 7.68-17.92 17.92s7.68 17.92 17.92 17.92h424.96c10.24 0 17.92-7.68 17.92-17.92s-7.68-17.92-17.92-17.92H322.56z m0-89.6c-10.24 0-17.92 7.68-17.92 17.92s7.68 17.92 17.92 17.92h424.96c10.24 0 17.92-7.68 17.92-17.92s-7.68-17.92-17.92-17.92H322.56zM358.4 314.88c-12.8 0-25.6 10.24-25.6 25.6V711.68c0 12.8 10.24 25.6 25.6 25.6h355.84c12.8 0 25.6-10.24 25.6-25.6v-371.2c0-12.8-10.24-25.6-25.6-25.6H358.4z m76.8 340.48c0-5.12 0-10.24 5.12-17.92l23.04-38.4 23.04-38.4h-30.72c-15.36 0-20.48-7.68-20.48-23.04 0-15.36 7.68-23.04 23.04-23.04H512v-20.48h-56.32c-15.36 0-20.48-7.68-20.48-23.04 0-15.36 7.68-23.04 23.04-23.04H512v-46.08c0-10.24 2.56-17.92 5.12-20.48s10.24-5.12 17.92-5.12c10.24 0 15.36 2.56 17.92 5.12 2.56 2.56 5.12 10.24 5.12 20.48v46.08H614.4c15.36 0 23.04 7.68 23.04 23.04 0 15.36-7.68 23.04-23.04 23.04h-56.32v20.48H614.4c15.36 0 23.04 7.68 23.04 23.04 0 15.36-7.68 23.04-23.04 23.04h-30.72l48.64 79.36c5.12 7.68 5.12 12.8 5.12 17.92 0 5.12-5.12 10.24-10.24 12.8-2.56 2.56-5.12 2.56-7.68 5.12s-5.12 2.56-7.68 0-5.12-2.56-7.68-5.12c-2.56-2.56-5.12-5.12-7.68-10.24-10.24-15.36-20.48-33.28-28.16-48.64s-20.48-33.28-28.16-48.64l-58.88 99.84c-5.12 7.68-10.24 12.8-15.36 12.8-5.12 0-10.24 0-17.92-5.12-10.24-5.12-12.8-10.24-12.8-15.36z"  horiz-adv-x="1024" />

    
    <glyph glyph-name="zijinguijiyuefenbutongji" unicode="&#58932;" d="M967.68 17.92H145.92V839.68c0 17.92-12.8 30.72-30.72 30.72s-30.72-12.8-30.72-30.72v-92.16H53.76C35.84 747.52 23.04 734.72 23.04 716.8s12.8-30.72 30.72-30.72h30.72v-181.76H53.76c-17.92 0-30.72-12.8-30.72-30.72s12.8-30.72 30.72-30.72h30.72v-181.76H53.76c-17.92 0-30.72-12.8-30.72-30.72s12.8-30.72 30.72-30.72h30.72v-181.76H53.76c-17.92 0-30.72-12.8-30.72-30.72s12.8-30.72 30.72-30.72h30.72v-30.72c0-17.92 12.8-30.72 30.72-30.72s30.72 12.8 30.72 30.72v30.72h181.76v-30.72c0-17.92 12.8-30.72 30.72-30.72s30.72 12.8 30.72 30.72v30.72h181.76v-30.72c0-17.92 12.8-30.72 30.72-30.72s30.72 12.8 30.72 30.72v30.72h181.76v-30.72c0-17.92 12.8-30.72 30.72-30.72s30.72 12.8 30.72 30.72v30.72h92.16c17.92 0 30.72 12.8 30.72 30.72s-12.8 30.72-30.72 30.72zM906.24 688.64c-51.2 0-92.16-40.96-92.16-92.16 0-23.04 7.68-40.96 20.48-58.88l-94.72-156.16c-5.12 0-12.8 2.56-17.92 2.56-25.6 0-46.08-10.24-64-25.6l-89.6 46.08v10.24c0 51.2-40.96 92.16-92.16 92.16S384 465.92 384 414.72c0-17.92 5.12-35.84 15.36-51.2l-79.36-104.96c-7.68 2.56-17.92 5.12-28.16 5.12-51.2 0-92.16-40.96-92.16-92.16s40.96-92.16 92.16-92.16 92.16 40.96 92.16 92.16c0 17.92-5.12 35.84-15.36 51.2l79.36 104.96c7.68-2.56 17.92-5.12 28.16-5.12 25.6 0 46.08 10.24 64 25.6l89.6-46.08v-10.24c0-51.2 40.96-92.16 92.16-92.16s92.16 40.96 92.16 92.16c0 23.04-7.68 40.96-20.48 58.88l94.72 156.16c5.12 0 12.8-2.56 17.92-2.56 51.2 0 92.16 40.96 92.16 92.16s-40.96 92.16-92.16 92.16z"  horiz-adv-x="1024" />

    
    <glyph glyph-name="neibulixihuizongtongji" unicode="&#58933;" d="M919.04 675.84c12.8 17.92 33.28 23.04 53.76 15.36 2.56 0 2.56-2.56 5.12-2.56 15.36-10.24 17.92-28.16 7.68-43.52L591.36 66.56c-12.8-17.92-33.28-23.04-53.76-15.36-2.56 0-2.56 2.56-5.12 2.56-15.36 10.24-17.92 28.16-7.68 43.52L919.04 675.84z m-79.36-399.36c35.84 0 64-12.8 81.92-38.4 15.36-20.48 25.6-51.2 25.6-87.04s-7.68-64-25.6-87.04c-17.92-23.04-46.08-35.84-81.92-35.84-35.84 0-64 12.8-81.92 35.84-17.92 23.04-25.6 51.2-25.6 87.04s7.68 66.56 25.6 87.04c17.92 25.6 46.08 38.4 81.92 38.4z m0-46.08c-15.36 0-28.16-7.68-33.28-25.6-5.12-12.8-7.68-30.72-7.68-53.76 0-23.04 2.56-40.96 7.68-53.76 5.12-15.36 17.92-25.6 33.28-25.6 15.36 0 25.6 7.68 33.28 25.6 5.12 12.8 7.68 30.72 7.68 51.2 0 23.04-2.56 40.96-7.68 53.76-7.68 17.92-17.92 28.16-33.28 28.16zM688.64 737.28c35.84 0 64-12.8 81.92-38.4 15.36-20.48 25.6-51.2 25.6-87.04s-7.68-64-25.6-87.04c-17.92-23.04-46.08-35.84-81.92-35.84-35.84 0-64 12.8-81.92 35.84-17.92 23.04-25.6 51.2-25.6 87.04s7.68 66.56 25.6 87.04c17.92 28.16 46.08 38.4 81.92 38.4z m0-46.08c-15.36 0-28.16-7.68-33.28-25.6-5.12-12.8-7.68-30.72-7.68-53.76 0-23.04 2.56-40.96 7.68-53.76 5.12-15.36 17.92-25.6 33.28-25.6 15.36 0 25.6 7.68 33.28 25.6 5.12 12.8 7.68 30.72 7.68 51.2 0 23.04-2.56 40.96-7.68 53.76-7.68 20.48-17.92 28.16-33.28 28.16zM281.6 696.32c66.56 0 117.76-28.16 156.16-89.6 35.84-56.32 53.76-133.12 53.76-230.4s-17.92-174.08-53.76-230.4c-38.4-58.88-89.6-89.6-156.16-89.6-66.56 0-117.76 30.72-156.16 89.6-35.84 56.32-53.76 133.12-53.76 230.4s17.92 174.08 53.76 230.4C163.84 665.6 215.04 696.32 281.6 696.32z m0-87.04c-46.08 0-76.8-25.6-94.72-81.92-12.8-38.4-17.92-87.04-17.92-153.6 0-64 5.12-115.2 17.92-153.6 17.92-53.76 51.2-81.92 94.72-81.92 43.52 0 76.8 28.16 94.72 81.92 12.8 38.4 17.92 89.6 17.92 153.6s-5.12 115.2-17.92 153.6c-17.92 56.32-48.64 81.92-94.72 81.92z"  horiz-adv-x="1024" />

    
    <glyph glyph-name="zhanghuyuefenbutongji" unicode="&#58934;" d="M967.68 844.8c20.48 0 38.4-17.92 38.4-38.4v-852.48c0-20.48-17.92-38.4-38.4-38.4H38.4c-20.48 0-38.4 17.92-38.4 38.4V806.4C0 826.88 17.92 844.8 38.4 844.8h929.28z m-793.6-463.36h135.68v-309.76H174.08V381.44zM435.2 650.24h135.68v-581.12H435.2V650.24z m261.12-153.6h135.68v-424.96h-135.68V496.64z m232.96-504.32V768H76.8v-773.12h852.48z"  horiz-adv-x="1024" />

    
    <glyph glyph-name="huichuhuikuanrongzichaxun" unicode="&#58935;" d="M880.013365 85.859467l104.781583-125.22677c17.889539-20.445187 15.33389-53.668616-5.111296-71.558155l-7.666945-5.111296c-20.445187-17.889539-53.668616-15.33389-71.558155 5.111296l-99.670286 120.115474c-84.336396-63.891209-186.562331-99.670286-299.010859-99.670287C225.767383-90.480271 0.870326 131.861137 0.870326 402.759865S225.767383 896 499.221758 896 997.57319 673.658592 997.57319 402.759865c0-120.115473-43.446022-232.564002-117.559825-316.900398zM499.221758 796.329714c-217.230111 0-398.681146-178.895386-398.681146-393.569849 0-217.230111 176.339738-393.569849 398.681146-393.569849s398.681146 173.784089 398.681146 393.569849S716.45187 796.329714 499.221758 796.329714zM207.877844 415.538106c-5.111297 2.555648-5.111297 10.222593 0 12.778242l153.338902 132.893716c5.111297 2.555648 10.222593 0 10.222594-5.111297v-102.225935h350.123826c23.000835 0 40.890374-17.889539 40.890374-43.446022 0-23.000835-17.889539-43.446022-40.890374-43.446023H373.994988v-81.780747c0-5.111297-7.666945-10.222593-10.222593-5.111297l-155.894551 135.449363z"  horiz-adv-x="1024" />

    
    <glyph glyph-name="huiruhuikuanrongzichaxun" unicode="&#58936;" d="M880.013365 85.859467l104.781583-125.22677c17.889539-20.445187 15.33389-53.668616-5.111296-71.558155l-7.666945-5.111296c-20.445187-17.889539-53.668616-15.33389-71.558155 5.111296l-99.670286 120.115474c-84.336396-63.891209-186.562331-99.670286-299.010859-99.670287C225.767383-90.480271 0.870326 131.861137 0.870326 402.759865S225.767383 896 499.221758 896 997.57319 673.658592 997.57319 402.759865c0-120.115473-43.446022-232.564002-117.559825-316.900398zM499.221758 796.329714c-217.230111 0-398.681146-178.895386-398.681146-393.569849s176.339738-393.569849 398.681146-393.569849 398.681146 173.784089 398.681146 393.569849S716.45187 796.329714 499.221758 796.329714z m265.787431-380.791608l-153.338903-132.893715c-5.111297-2.555648-10.222593 0-10.222593 5.111297v81.780748H246.21257c-23.000835 0-40.890374 17.889539-40.890374 43.446022s17.889539 43.446022 40.890374 43.446022h350.123826v102.225935c0 5.111297 7.666945 10.222593 10.222594 5.111297l153.338902-132.893715c7.666945-5.111297 7.666945-10.222593 5.111297-15.333891z"  horiz-adv-x="1024" />

    
    <glyph glyph-name="huiruhuichuhuikuanchaxun" unicode="&#58937;" d="M884.195754 82.77777l107.070012-127.4643c17.845002-20.394288 15.295716-53.535006-5.098572-71.380007s-53.535006-15.295716-71.380008 5.098572l-101.971439 122.365727c-84.126438-68.830722-193.745735-109.619297-311.012891-109.619297C226.479969-98.221535 2.142802 126.115632 2.142802 398.889232S226.479969 896 499.25357 896 996.364338 671.662833 996.364338 398.889232c0-119.816441-43.337862-229.435739-112.168584-316.111462zM499.25357 794.02856C282.564261 794.02856 104.114242 615.578541 104.114242 398.889232S280.014975 3.749904 499.25357 3.749904 894.392898 179.650637 894.392898 398.889232 715.942879 794.02856 499.25357 794.02856z m-175.900733-369.646468l313.562176 175.900733c15.295716 7.647858 33.140718 2.549286 40.788576-10.197144 7.647858-15.295716 2.549286-33.140718-10.197144-40.788575L206.085681 284.171363l33.140718 234.534311 84.126438-94.323582z m331.407178-30.591432l-311.01289-193.745735c-15.295716-7.647858-33.140718-2.549286-43.337862 10.197144-10.197144 15.295716-5.098572 35.690004 10.197144 43.337862L766.928599 539.099962v-237.083597l-112.168584 91.774295z"  horiz-adv-x="1024" />

    
    <glyph glyph-name="jieshouhuichaxun" unicode="&#58938;" d="M880.013365 85.859467l104.781583-125.22677c17.889539-20.445187 15.33389-53.668616-5.111296-71.558155l-7.666945-5.111296c-20.445187-17.889539-53.668616-15.33389-71.558155 5.111296l-99.670286 120.115474c-84.336396-63.891209-186.562331-99.670286-299.010859-99.670287C225.767383-90.480271 0.870326 131.861137 0.870326 402.759865S225.767383 896 499.221758 896 997.57319 673.658592 997.57319 402.759865c0-120.115473-43.446022-232.564002-117.559825-316.900398zM499.221758 796.329714c-217.230111 0-398.681146-178.895386-398.681146-393.569849s176.339738-393.569849 398.681146-393.569849 398.681146 173.784089 398.681146 393.569849S716.45187 796.329714 499.221758 796.329714z m-76.669451-529.019213l-153.338902-35.779077c-17.889539-5.111297-28.112132-20.445187-25.556484-35.779077 2.555648-15.33389 15.33389-25.556484 30.667781-23.000836h2.555648l145.671957 38.334726c15.33389 5.111297 28.112132 17.889539 28.112132 35.779077 0 12.778242-10.222593 23.000835-23.000835 23.000835-2.555648-2.555648-5.111297-2.555648-5.111297-2.555648zM358.661098 681.325537c15.33389-5.111297 23.000835-23.000835 17.889538-38.334726v-2.555648c-30.66778-69.002506-56.224264-115.004177-71.558154-140.56066 20.445187 2.555648 43.446022 5.111297 63.891209 7.666945 2.555648 2.555648 2.555648 7.666945 5.111297 10.222593 7.666945 15.33389 25.556484 20.445187 40.890374 15.33389 12.778242-5.111297 17.889539-17.889539 12.778242-30.66778 0-2.555648 0-2.555648-2.555649-5.111297-43.446022-71.558154-74.113803-120.115473-94.558989-145.671957 20.445187 5.111297 51.112967 12.778242 86.892044 23.000836 10.222593 2.555648 23.000835-2.555648 25.556484-12.778242v-5.111297c0-15.33389-10.222593-30.66778-25.556484-33.223429l-138.005012-33.223429c-12.778242-2.555648-25.556484 5.111297-30.66778 17.889539l-5.111297 17.889539c-2.555648 7.666945 0 17.889539 5.111297 25.556483 38.334726 40.890374 66.446858 74.113803 84.336396 102.225935-15.33389-2.555648-35.779077-5.111297-66.446857-7.666945-12.778242-2.555648-25.556484 5.111297-28.112133 17.889539l-7.666945 25.556483c-2.555648 5.111297 0 12.778242 2.555649 17.889539L312.659427 665.991647c10.222593 12.778242 28.112132 20.445187 46.001671 15.33389z m112.448528-58.779913h104.781583V655.769053c0 17.889539 12.778242 30.66778 30.667781 30.667781s30.66778-12.778242 30.66778-30.667781v-33.223429H742.008353c15.33389 0 30.66778-12.778242 30.667781-30.66778 0-15.33389-12.778242-30.66778-30.667781-30.66778h-104.781583v-69.002506h86.892045c15.33389 0 28.112132-12.778242 28.112132-30.667781 0-15.33389-12.778242-30.66778-28.112132-30.66778h-232.564002c-15.33389 0-30.66778 12.778242-30.66778 30.66778 0 15.33389 12.778242 30.66778 30.66778 30.667781h84.336396V563.765712h-104.781583c-15.33389 0-28.112132 12.778242-28.112132 30.66778-2.555648 12.778242 10.222593 28.112132 28.112132 28.112132z m270.898727-255.564837v-173.784089c0-15.33389-10.222593-25.556484-25.556483-25.556483h-214.674463c-15.33389 0-25.556484 10.222593-25.556484 25.556483v173.784089c0 15.33389 10.222593 25.556484 25.556484 25.556484H716.45187c12.778242 0 25.556484-10.222593 25.556483-25.556484z m-209.563166-140.56066h148.227605v109.89288h-148.227605v-109.89288z"  horiz-adv-x="1024" />

    
    <glyph glyph-name="chukouxinyongzhengtongzhichaxun" unicode="&#58939;" d="M880.013365 85.859467l104.781583-125.22677c17.889539-20.445187 15.33389-53.668616-5.111296-71.558155l-7.666945-5.111296c-20.445187-17.889539-53.668616-15.33389-71.558155 5.111296l-99.670286 120.115474c-84.336396-63.891209-186.562331-99.670286-299.010859-99.670287C225.767383-90.480271 0.870326 131.861137 0.870326 402.759865S225.767383 896 499.221758 896 997.57319 673.658592 997.57319 402.759865c0-120.115473-43.446022-232.564002-117.559825-316.900398zM499.221758 796.329714c-217.230111 0-398.681146-178.895386-398.681146-393.569849s176.339738-393.569849 398.681146-393.569849 398.681146 173.784089 398.681146 393.569849S716.45187 796.329714 499.221758 796.329714z m38.334726-184.006683c7.666945-2.555648 12.778242-10.222593 12.778242-17.889539v-370.569013c0-7.666945-5.111297-15.33389-12.778242-17.889539-2.555648-2.555648-5.111297-2.555648-7.666945-2.555648-5.111297 0-10.222593 2.555648-12.778242 5.111297l-117.559825 97.114638h-94.55899c-5.111297 0-10.222593 2.555648-15.33389 5.111296-5.111297 5.111297-5.111297 10.222593-5.111297 15.333891v163.561495c0 5.111297 2.555648 10.222593 5.111297 15.33389 5.111297 5.111297 10.222593 5.111297 15.33389 5.111297h94.55899l117.559825 99.670287c5.111297 5.111297 12.778242 7.666945 20.445187 2.555648z m79.225099-102.225935c2.555648 0 56.224264-28.112132 56.224264-99.670286 0-74.113803-51.112967-102.225935-53.668615-102.225935-2.555648-2.555648-5.111297-2.555648-10.222594-2.555648-7.666945 0-15.33389 5.111297-17.889539 10.222593-5.111297 10.222593 0 23.000835 10.222594 28.112132 0 0 30.66778 17.889539 30.66778 66.446858 0 46.001671-30.66778 61.335561-33.223428 61.335561-10.222593 5.111297-15.33389 17.889539-10.222594 28.112132 7.666945 10.222593 17.889539 15.33389 28.112132 10.222593z m63.891209 61.335561c2.555648-2.555648 74.113803-48.557319 74.113803-161.005847s-69.002506-158.450199-71.558154-161.005848c-2.555648-2.555648-7.666945-2.555648-10.222594-2.555648-7.666945 0-12.778242 2.555648-17.889538 10.222594-5.111297 10.222593-2.555648 23.000835 5.111296 28.112132 2.555648 2.555648 53.668616 38.334726 53.668616 127.782418s-53.668616 125.22677-53.668616 127.782419c-10.222593 5.111297-12.778242 17.889539-5.111296 28.112132 5.111297 5.111297 17.889539 7.666945 25.556483 2.555648z"  horiz-adv-x="1024" />

    
    <glyph glyph-name="guojibaohankailichaxun" unicode="&#58940;" d="M266.852868-125.446384c-15.321696 0-28.089776 5.107232-40.857856 12.76808L65.117207 53.306733c-7.660848 12.76808-12.76808 30.643392-12.76808 45.965087V699.371571c0 71.501247 33.197007 104.698254 104.698255 104.698254h224.718204c15.321696 0 30.643392-7.660848 40.857855-22.982543s7.660848-30.643392 0-45.965087-22.982544-22.982544-40.857855-22.982544H144.279302v-579.670823h97.037406c71.501247 0 71.501247-2.553616 71.501247-74.054863v-94.48379h441.775561V329.097257c0 25.53616 20.428928 45.965087 45.965087 45.965087s45.965087-20.428928 45.965088-45.965087V-23.301746c0-71.501247-33.197007-104.698254-104.698255-104.698254H266.852868z m45.965087 380.488778c-25.53616 0-45.965087 20.428928-45.965087 45.965087s20.428928 45.965087 45.965087 45.965088H588.608479c25.53616 0 45.965087-20.428928 45.965087-45.965088s-20.428928-45.965087-45.965087-45.965087H312.817955z m638.40399 140.448878c-12.76808 0-22.982544 5.107232-33.197007 12.76808l-81.715711 81.71571c-84.269327-56.179551-196.628429-45.965087-270.683292 22.982544-74.054863 68.947631-91.930175 178.753117-43.411471 268.129676C570.733167 870.46384 672.877805 913.875312 769.915212 888.339152c97.037406-25.53616 165.985037-112.359102 165.985037-214.503741 0-43.411471-12.76808-84.269327-35.750623-120.01995l81.715711-81.71571c12.76808-12.76808 17.875312-33.197007 10.214463-48.518704-5.107232-17.875312-22.982544-28.089776-40.857855-28.089775zM716.289277 804.069825c-71.501247 0-130.234414-58.733167-130.234414-130.234414s58.733167-130.234414 130.234414-130.234413 130.234414 58.733167 130.234414 130.234413-58.733167 130.234414-130.234414 130.234414zM312.817955 438.902743c-15.321696 0-30.643392 7.660848-40.857855 22.982544-7.660848 15.321696-7.660848 30.643392 0 45.965087 7.660848 15.321696 22.982544 22.982544 40.857855 22.982544h107.25187c25.53616 0 45.965087-20.428928 45.965088-45.965088s-20.428928-45.965087-45.965088-45.965087h-107.25187z"  horiz-adv-x="1024" />

    
    <glyph glyph-name="guangpiaotuoshouchaxun" unicode="&#58941;" d="M204.8 844.8h614.4c112.64 0 204.8-92.16 204.8-204.8v-384c0-112.64-92.16-204.8-204.8-204.8H204.8c-112.64 0-204.8 92.16-204.8 204.8V640c0 112.64 92.16 204.8 204.8 204.8z m0-76.8c-71.68 0-128-56.32-128-128v-384c0-71.68 56.32-128 128-128h614.4c71.68 0 128 56.32 128 128V640c0 71.68-56.32 128-128 128H204.8z m686.08-527.36l-10.24-10.24c-10.24-10.24-33.28-10.24-43.52 0l-74.24 66.56c-28.16-17.92-58.88-28.16-92.16-28.16-97.28 0-174.08 79.36-174.08 174.08s76.8 174.08 174.08 174.08S844.8 537.6 844.8 442.88c0-35.84-10.24-66.56-28.16-94.72l74.24-66.56c12.8-7.68 10.24-28.16 0-40.96z m-220.16 302.08c-53.76 0-97.28-43.52-97.28-99.84 0-53.76 43.52-99.84 97.28-99.84s97.28 43.52 97.28 99.84-43.52 99.84-97.28 99.84zM89.6 0h819.2c20.48 0 38.4-17.92 38.4-38.4s-17.92-38.4-38.4-38.4h-819.2c-20.48 0-38.4 17.92-38.4 38.4S69.12 0 89.6 0zM153.6 691.2h102.4v-153.6H153.6V691.2z m153.6 0h102.4v-153.6h-102.4V691.2z m-153.6-204.8h256v-51.2H153.6v51.2z m0-102.4h256v-51.2H153.6v51.2z"  horiz-adv-x="1024" />

    
    <glyph glyph-name="guojibaohantongzhichaxun" unicode="&#58942;" d="M486.4 391.68V409.6c0 12.8-15.36 23.04-30.72 23.04H192c-15.36 0-30.72-10.24-30.72-23.04v-17.92c0-12.8 15.36-23.04 30.72-23.04h263.68c20.48-2.56 30.72 7.68 30.72 23.04z m-17.92-394.24c-212.48 0-386.56 176.64-386.56 394.24S253.44 785.92 468.48 785.92c112.64 0 212.48-48.64 281.6-125.44h102.4C768 785.92 627.2 867.84 465.92 867.84 209.92 867.84 0 652.8 0 389.12c0-263.68 209.92-478.72 468.48-478.72 161.28 0 299.52 81.92 386.56 207.36h-102.4c-74.24-71.68-174.08-120.32-284.16-120.32z m38.4 555.52c0 12.8-15.36 25.6-30.72 25.6H253.44c-15.36 0-30.72-10.24-30.72-25.6v-15.36c0-12.8 15.36-25.6 30.72-25.6h222.72c15.36 0 30.72 10.24 30.72 25.6v15.36z m-253.44-332.8c-15.36 0-30.72 10.24-30.72 25.6v15.36c0 15.36 15.36 25.6 30.72 25.6h222.72c15.36 0 30.72-12.8 30.72-25.6v-15.36c0-15.36-15.36-25.6-30.72-25.6H253.44zM811.52 614.4c5.12-2.56 10.24-7.68 10.24-15.36v-412.16c0-5.12-5.12-15.36-10.24-15.36-2.56-2.56-5.12-2.56-5.12-2.56-5.12 0-7.68 2.56-12.8 5.12-2.56 0-25.6 20.48-48.64 40.96-43.52 35.84-56.32 40.96-58.88 43.52h-92.16c-7.68 0-15.36 5.12-15.36 15.36v235.52c0 7.68 5.12 15.36 15.36 15.36h81.92c2.56 2.56 15.36 7.68 64 46.08 25.6 23.04 53.76 43.52 53.76 43.52 7.68 2.56 12.8 2.56 17.92 0z m128-222.72c0-46.08-25.6-87.04-58.88-107.52 0 0-5.12-2.56-7.68-2.56-7.68 0-15.36 5.12-15.36 15.36 0 5.12 2.56 10.24 5.12 12.8 28.16 15.36 46.08 48.64 46.08 81.92 0 35.84-17.92 66.56-46.08 81.92-5.12 2.56-5.12 5.12-5.12 12.8s5.12 15.36 15.36 15.36c2.56 0 5.12-2.56 7.68-2.56 33.28-20.48 58.88-61.44 58.88-107.52z m-17.92 186.88c58.88-38.4 99.84-104.96 102.4-184.32 0-76.8-40.96-145.92-102.4-181.76-2.56 0-5.12-2.56-7.68-2.56-7.68 0-15.36 5.12-15.36 15.36 0 5.12 5.12 12.8 7.68 15.36 53.76 30.72 87.04 89.6 87.04 158.72 0 66.56-33.28 125.44-87.04 158.72-5.12 2.56-7.68 5.12-7.68 12.8s5.12 15.36 15.36 15.36c2.56-7.68 7.68-7.68 7.68-7.68z"  horiz-adv-x="1024" />

    
    <glyph glyph-name="gendantuoshouchaxun" unicode="&#58943;" d="M256 896h512c112.64 0 204.8-92.16 204.8-204.8v-588.8c0-112.64-92.16-204.8-204.8-204.8H256c-112.64 0-204.8 92.16-204.8 204.8V691.2c0 112.64 92.16 204.8 204.8 204.8z m0-76.8C184.32 819.2 128 762.88 128 691.2v-588.8c0-71.68 56.32-128 128-128h512c71.68 0 128 56.32 128 128V691.2c0 71.68-56.32 128-128 128H256z m558.08-783.36l-10.24-10.24c-10.24-10.24-33.28-10.24-43.52 0l-74.24 66.56c-28.16-17.92-58.88-28.16-92.16-28.16-97.28 0-174.08 79.36-174.08 174.08s76.8 174.08 174.08 174.08S768 332.8 768 238.08c0-35.84-10.24-66.56-28.16-94.72l74.24-66.56c12.8-7.68 10.24-28.16 0-40.96z m-220.16 302.08c-53.76 0-97.28-43.52-97.28-99.84 0-53.76 43.52-99.84 97.28-99.84s97.28 43.52 97.28 99.84-43.52 99.84-97.28 99.84zM204.8 716.8h204.8c15.36 0 25.6-10.24 25.6-25.6v-76.8c0-15.36-10.24-25.6-25.6-25.6H204.8c-15.36 0-25.6 10.24-25.6 25.6V691.2c0 15.36 10.24 25.6 25.6 25.6z m-25.6-179.2h665.6v-51.2H179.2v51.2z m0-128h204.8v-51.2H179.2v51.2zM486.4 665.6h358.4v-51.2H486.4V665.6z"  horiz-adv-x="1024" />

    
    <glyph glyph-name="guoneizhengkailichaxun" unicode="&#58944;" d="M294.4 499.2c-17.92 0-30.72 10.24-30.72 28.16v17.92c0 17.92 15.36 28.16 30.72 28.16h358.4c17.92 0 30.72-12.8 30.72-28.16v-17.92c0-17.92-15.36-28.16-30.72-28.16h-358.4z m0-153.6c-17.92 0-30.72 10.24-30.72 28.16v17.92c0 12.8 15.36 23.04 30.72 23.04h358.4c17.92 0 30.72-10.24 30.72-23.04v-17.92c0-17.92-15.36-28.16-30.72-28.16h-358.4zM593.92 739.84h-240.64c-38.4 0-69.12 25.6-69.12 56.32v17.92C284.16 844.8 314.88 870.4 353.28 870.4h240.64c38.4 0 69.12-25.6 69.12-56.32v-17.92c0-30.72-30.72-56.32-69.12-56.32z m197.12 110.08C849.92 849.92 896 801.28 896 742.4v-355.84l-84.48 25.6V762.88h-64V849.92h43.52zM135.68-40.96h432.64L665.6-128H156.16C97.28-128 51.2-79.36 51.2-20.48V737.28C51.2 798.72 97.28 844.8 156.16 844.8h43.52v-87.04H135.68v-798.72z m151.04 235.52c-12.8 0-25.6 10.24-25.6 28.16v17.92c0 17.92 10.24 28.16 25.6 28.16h212.48c12.8 0 25.6-12.8 25.6-28.16v-17.92c0-17.92-10.24-28.16-25.6-28.16h-212.48z m680.96-261.12l-10.24-10.24c-10.24-10.24-33.28-10.24-43.52 0l-74.24 66.56c-28.16-17.92-58.88-28.16-92.16-28.16-97.28 0-174.08 79.36-174.08 174.08s76.8 174.08 174.08 174.08S921.6 230.4 921.6 135.68c0-35.84-10.24-66.56-28.16-94.72l74.24-66.56c12.8-7.68 10.24-28.16 0-40.96z m-220.16 302.08c-53.76 0-97.28-43.52-97.28-99.84 0-53.76 43.52-99.84 97.28-99.84s97.28 43.52 97.28 99.84-43.52 99.84-97.28 99.84z"  horiz-adv-x="1024" />

    
    <glyph glyph-name="jinkoudaishouchaxun" unicode="&#58945;" d="M151.04 58.88C69.12 58.88 0 128 0 209.92V693.76C0 775.68 69.12 844.8 151.04 844.8h606.72c84.48 0 151.04-69.12 151.04-151.04v-230.4c-17.92 17.92-61.44 40.96-87.04 53.76V678.4c0 46.08-43.52 87.04-89.6 87.04H174.08C128 765.44 89.6 716.8 89.6 670.72v-432.64c0-46.08 33.28-92.16 81.92-92.16H460.8c12.8-23.04 33.28-66.56 51.2-87.04H151.04zM1013.76-25.6c15.36-15.36 15.36-35.84 0-46.08-7.68-7.68-15.36-10.24-23.04-10.24s-15.36 2.56-23.04 10.24l-107.52 107.52c-30.72-15.36-66.56-25.6-104.96-25.6-117.76 0-212.48 94.72-212.48 212.48 0 117.76 94.72 212.48 212.48 212.48s212.48-94.72 212.48-212.48c0-56.32-20.48-107.52-56.32-143.36l102.4-104.96z m-404.48 245.76c0-79.36 66.56-145.92 145.92-145.92s145.92 66.56 145.92 145.92-66.56 145.92-145.92 145.92-145.92-66.56-145.92-145.92zM261.12 478.72c-56.32 0-102.4 46.08-102.4 102.4s46.08 102.4 102.4 102.4 102.4-46.08 102.4-102.4c0-58.88-46.08-102.4-102.4-102.4z m0 156.16c-30.72 0-56.32-25.6-56.32-56.32 0-30.72 25.6-56.32 56.32-56.32 30.72 0 56.32 25.6 56.32 56.32 0 30.72-25.6 56.32-56.32 56.32z m501.76-53.76l-135.68-92.16v61.44h-120.32l-153.6-192c-5.12-5.12-10.24-7.68-15.36-7.68H181.76c-12.8 0-28.16 12.8-28.16 35.84s17.92 33.28 28.16 33.28H332.8c107.52 130.56 158.72 197.12 158.72 197.12h133.12V678.4l138.24-97.28zM115.2 0h512c20.48 0 38.4-17.92 38.4-38.4s-17.92-38.4-38.4-38.4h-512c-20.48 0-38.4 17.92-38.4 38.4S94.72 0 115.2 0z"  horiz-adv-x="1025" />

    
    <glyph glyph-name="guoneizhengtongzhichaxun" unicode="&#58946;" d="M248.32 522.24h368.64c17.92 0 33.28 10.24 33.28 28.16v17.92c0 12.8-15.36 28.16-33.28 28.16H248.32c-17.92 0-33.28-10.24-33.28-28.16v-17.92c0-17.92 15.36-28.16 33.28-28.16z m0-151.04h368.64c17.92 0 33.28 10.24 33.28 28.16v17.92c0 12.8-15.36 25.6-33.28 25.6H248.32c-17.92 0-33.28-10.24-33.28-25.6v-17.92c0-17.92 15.36-28.16 33.28-28.16z m307.2 394.24c38.4 0 71.68 25.6 71.68 56.32v17.92C627.2 870.4 593.92 896 555.52 896h-245.76c-38.4 0-71.68-25.6-71.68-56.32v-17.92c0-30.72 33.28-56.32 71.68-56.32h245.76zM755.2 872.96h-43.52v-87.04h64V435.2h87.04V762.88c2.56 64-46.08 110.08-107.52 110.08zM87.04-12.8V785.92h64V872.96H107.52C46.08 872.96 0 824.32 0 765.44v-755.2c0-61.44 48.64-107.52 107.52-107.52h650.24l-74.24 87.04H87.04z m161.28 232.96c-17.92 0-33.28 10.24-33.28 28.16v17.92c0 17.92 15.36 28.16 33.28 28.16h281.6c17.92 0 33.28-12.8 33.28-28.16v-17.92c0-17.92-15.36-28.16-33.28-28.16h-281.6zM844.8 350.72c5.12-2.56 10.24-7.68 10.24-12.8V0c0-5.12-2.56-12.8-10.24-12.8-2.56-2.56-2.56-2.56-5.12-2.56s-7.68 2.56-10.24 2.56c-2.56 0-23.04 17.92-43.52 33.28-38.4 28.16-51.2 33.28-53.76 35.84h-81.92c-7.68 0-12.8 5.12-12.8 12.8v194.56c0 7.68 5.12 12.8 12.8 12.8h74.24c2.56 2.56 15.36 7.68 58.88 38.4 23.04 17.92 48.64 35.84 48.64 35.84 2.56 2.56 7.68 2.56 12.8 0z m102.4-181.76c0-38.4-23.04-71.68-53.76-89.6 0 0-2.56-2.56-7.68-2.56-7.68 0-12.8 5.12-12.8 12.8 0 2.56 2.56 7.68 5.12 10.24 25.6 12.8 43.52 38.4 43.52 69.12s-15.36 53.76-43.52 69.12c-2.56 2.56-5.12 5.12-5.12 10.24 0 7.68 5.12 12.8 12.8 12.8 2.56 0 5.12-2.56 7.68-2.56 30.72-20.48 53.76-51.2 53.76-89.6z m-15.36 151.04c53.76-28.16 89.6-84.48 92.16-151.04 0-64-35.84-120.32-92.16-148.48-2.56 0-2.56-2.56-7.68-2.56-7.68 0-12.8 5.12-12.8 12.8 0 5.12 2.56 10.24 7.68 12.8 48.64 25.6 79.36 74.24 79.36 130.56 0 53.76-30.72 104.96-79.36 130.56-2.56 2.56-7.68 5.12-7.68 10.24 0 7.68 5.12 12.8 12.8 12.8 2.56-7.68 5.12-7.68 7.68-7.68z"  horiz-adv-x="1024" />

    
    <glyph glyph-name="piliangdaifudianzihuidan" unicode="&#58947;" d="M990.72-84.48l-10.24-10.24c-10.24-10.24-33.28-10.24-43.52 0l-74.24 66.56c-25.6-17.92-58.88-28.16-92.16-28.16-94.72 0-174.08 76.8-174.08 174.08 0 94.72 76.8 174.08 174.08 174.08s174.08-76.8 174.08-174.08c0-33.28-10.24-66.56-28.16-92.16l74.24-66.56c10.24-12.8 10.24-33.28 0-43.52z m-220.16 299.52c-53.76 0-97.28-43.52-97.28-97.28 0-53.76 43.52-97.28 97.28-97.28s97.28 43.52 97.28 97.28c0 53.76-43.52 97.28-97.28 97.28z m102.4 138.24V783.36H140.8v-711.68h376.32c0-38.4 30.72-69.12 43.52-89.6H112.64c-33.28 0-61.44 28.16-61.44 64V808.96C51.2 844.8 79.36 872.96 112.64 872.96h785.92c33.28 0 61.44-28.16 61.44-64v-519.68c-17.92 20.48-53.76 51.2-87.04 64zM294.4 640h409.6c20.48 0 38.4-17.92 38.4-38.4s-17.92-38.4-38.4-38.4h-409.6c-20.48 0-38.4 17.92-38.4 38.4s17.92 38.4 38.4 38.4z m0-153.6h409.6c20.48 0 38.4-17.92 38.4-38.4s-17.92-38.4-38.4-38.4h-409.6c-20.48 0-38.4 17.92-38.4 38.4s17.92 38.4 38.4 38.4z m0-153.6h204.8c20.48 0 38.4-17.92 38.4-38.4s-17.92-38.4-38.4-38.4h-204.8c-20.48 0-38.4 17.92-38.4 38.4s17.92 38.4 38.4 38.4z"  horiz-adv-x="1024" />

    
    <glyph glyph-name="xunidianzihuidan" unicode="&#58948;" d="M993.28-92.16l-10.24-10.24c-10.24-10.24-33.28-10.24-43.52 0l-74.24 66.56c-28.16-17.92-58.88-28.16-92.16-28.16-97.28 0-174.08 79.36-174.08 174.08 0 97.28 76.8 174.08 174.08 174.08S947.2 204.8 947.2 110.08c0-35.84-10.24-66.56-28.16-94.72l74.24-66.56c12.8-7.68 10.24-28.16 0-40.96z m-220.16 302.08c-53.76 0-97.28-43.52-97.28-99.84 0-53.76 43.52-99.84 97.28-99.84s97.28 43.52 97.28 99.84-43.52 99.84-97.28 99.84z m104.96 138.24V780.8H140.8v-716.8h378.88c0-38.4 30.72-69.12 43.52-89.6H112.64C79.36-25.6 51.2 2.56 51.2 38.4v768C51.2 842.24 79.36 870.4 112.64 870.4h791.04c33.28 0 61.44-28.16 61.44-64v-522.24c-20.48 20.48-56.32 51.2-87.04 64zM512 768h-204.8v-304.64l104.96 58.88 99.84-56.32V768zM230.4 844.8h358.4v-512l-176.64 102.4L230.4 332.8V844.8z"  horiz-adv-x="1024" />

    
    <glyph glyph-name="baozhangjinzhanghuyuechaxun" unicode="&#58949;" d="M993.28-89.6l-10.24-10.24c-10.24-10.24-33.28-10.24-43.52 0l-74.24 66.56c-28.16-17.92-58.88-28.16-92.16-28.16-97.28 0-174.08 79.36-174.08 174.08s76.8 174.08 174.08 174.08 174.08-79.36 174.08-174.08c0-35.84-10.24-66.56-28.16-94.72l74.24-66.56c12.8-7.68 10.24-28.16 0-40.96z m-220.16 302.08c-53.76 0-97.28-43.52-97.28-99.84 0-53.76 43.52-99.84 97.28-99.84s97.28 43.52 97.28 99.84-43.52 99.84-97.28 99.84z m104.96 135.68V780.8H140.8v-716.8h378.88c0-38.4 30.72-69.12 43.52-89.6H112.64C79.36-25.6 51.2 2.56 51.2 38.4v768C51.2 842.24 79.36 870.4 112.64 870.4h791.04c33.28 0 61.44-28.16 61.44-64v-522.24c-20.48 20.48-56.32 51.2-87.04 64zM284.16 640c-7.68 17.92-2.56 33.28 17.92 43.52 20.48 10.24 35.84 7.68 48.64-12.8l97.28-151.04 99.84 151.04c12.8 17.92 28.16 23.04 46.08 15.36 17.92-7.68 25.6-23.04 17.92-46.08L512 488.96h81.92c7.68-7.68 12.8-15.36 12.8-25.6s-5.12-20.48-12.8-25.6h-104.96v-43.52h104.96c7.68-7.68 12.8-15.36 12.8-25.6s-5.12-20.48-12.8-25.6h-104.96v-110.08c2.56-30.72-10.24-48.64-38.4-48.64s-40.96 15.36-40.96 48.64v110.08h-104.96c-10.24 5.12-15.36 15.36-15.36 25.6s5.12 20.48 15.36 25.6H409.6v43.52h-104.96c-10.24 7.68-15.36 15.36-15.36 25.6s5.12 20.48 15.36 25.6H384L284.16 640z"  horiz-adv-x="1024" />

    
    <glyph glyph-name="baozhengjinmingxichaxun" unicode="&#58950;" d="M663.04 312.32c-125.44-51.2-273.92 0-343.04 125.44-76.8 135.68-33.28 312.32 99.84 391.68 87.04 53.76 194.56 53.76 281.6 2.56 87.04-51.2 140.8-148.48 140.8-253.44 0-89.6-40.96-171.52-107.52-227.84l115.2-199.68c5.12-10.24 7.68-20.48 5.12-30.72s-10.24-17.92-17.92-23.04c-17.92-10.24-43.52-5.12-53.76 15.36l-120.32 199.68z m-486.4 17.92c0 23.04 17.92 40.96 40.96 40.96s40.96-17.92 40.96-40.96c0-23.04-17.92-40.96-40.96-40.96s-40.96 20.48-40.96 40.96z m38.4-122.88h317.44c23.04 0 40.96-17.92 40.96-40.96s-17.92-40.96-40.96-40.96H215.04c-23.04 0-40.96 17.92-40.96 40.96s17.92 40.96 40.96 40.96zM919.04 640c43.52 0 79.36-35.84 79.36-81.92v-578.56c0-46.08-35.84-81.92-79.36-81.92H104.96C61.44-102.4 25.6-66.56 25.6-20.48V558.08C25.6 604.16 61.44 640 104.96 640h122.88c-2.56-12.8-5.12-28.16-5.12-40.96 0-15.36 2.56-28.16 5.12-40.96H104.96v-578.56h814.08V640z m-460.8 117.76c-94.72-56.32-128-184.32-71.68-281.6 53.76-99.84 176.64-133.12 271.36-76.8 61.44 35.84 99.84 104.96 99.84 179.2 0 74.24-38.4 140.8-99.84 179.2s-138.24 38.4-199.68 0z"  horiz-adv-x="1024" />

    
    <glyph glyph-name="baozhengjinruzhangguizeshezhi" unicode="&#58951;" d="M209.92 23.04C128 81.92 58.88 153.6 58.88 322.56V744.96C102.4 744.96 491.52 878.08 509.44 896l450.56-151.04v-458.24c0-168.96-76.8-215.04-115.2-240.64-71.68-48.64-309.76-174.08-327.68-174.08-148.48 61.44-250.88 110.08-307.2 151.04z m69.12 76.8c43.52-30.72 122.88-69.12 240.64-117.76 12.8 0 199.68 99.84 256 135.68 30.72 20.48 89.6 56.32 89.6 186.88v358.4L514.56 780.8C499.2 768 197.12 665.6 161.28 665.6v-330.24c0-133.12 53.76-189.44 117.76-235.52z m69.12 486.4c-7.68 17.92-2.56 33.28 17.92 46.08 20.48 10.24 35.84 7.68 48.64-12.8l97.28-153.6 99.84 153.6c12.8 17.92 28.16 23.04 46.08 15.36s25.6-25.6 17.92-48.64L576 435.2h81.92c7.68-7.68 12.8-15.36 12.8-25.6s-5.12-20.48-12.8-25.6h-107.52v-43.52h107.52c7.68-7.68 12.8-15.36 12.8-25.6s-5.12-20.48-12.8-25.6h-107.52V179.2c2.56-30.72-10.24-48.64-38.4-48.64s-43.52 15.36-40.96 48.64v110.08h-107.52c-10.24 5.12-15.36 15.36-15.36 25.6 0 12.8 5.12 20.48 15.36 25.6h107.52V384h-104.96c-10.24 7.68-15.36 15.36-15.36 25.6s5.12 20.48 15.36 25.6h81.92l-99.84 151.04z"  horiz-adv-x="1024" />

    
    <glyph glyph-name="baimingdanchaxun" unicode="&#58952;" d="M291.84-128c-15.36 0-28.16 5.12-40.96 12.8L89.6 51.2c-7.68 15.36-12.8 30.72-12.8 46.08V698.88c0 71.68 33.28 104.96 104.96 104.96h225.28c15.36 0 30.72-7.68 40.96-23.04s7.68-30.72 0-46.08-23.04-23.04-40.96-23.04H168.96v-581.12h97.28c71.68 0 71.68-2.56 71.68-74.24v-94.72h442.88V330.24c0 25.6 20.48 46.08 46.08 46.08s46.08-20.48 46.08-46.08v-353.28c0-71.68-33.28-104.96-104.96-104.96H291.84z m46.08 381.44c-25.6 0-46.08 20.48-46.08 46.08s20.48 46.08 46.08 46.08H614.4c25.6 0 46.08-20.48 46.08-46.08s-20.48-46.08-46.08-46.08H337.92z m642.56 140.8c-12.8 0-23.04 5.12-33.28 12.8l-81.92 81.92c-84.48-56.32-197.12-46.08-271.36 23.04s-92.16 179.2-43.52 268.8S701.44 913.92 798.72 888.32s166.4-112.64 166.4-215.04c0-43.52-12.8-84.48-35.84-120.32l81.92-81.92c12.8-12.8 17.92-33.28 10.24-48.64-5.12-17.92-23.04-28.16-40.96-28.16z m-235.52 409.6c-71.68 0-130.56-58.88-130.56-130.56s58.88-130.56 130.56-130.56 130.56 58.88 130.56 130.56c-2.56 71.68-58.88 130.56-130.56 130.56zM337.92 437.76c-15.36 0-30.72 7.68-40.96 23.04-7.68 15.36-7.68 30.72 0 46.08 7.68 15.36 23.04 23.04 40.96 23.04h107.52c25.6 0 46.08-20.48 46.08-46.08s-20.48-46.08-46.08-46.08h-107.52z"  horiz-adv-x="1025" />

    
    <glyph glyph-name="baozhengjinruzhangmingxichaxun" unicode="&#58953;" d="M993.28-89.6l-10.24-10.24c-10.24-10.24-33.28-10.24-43.52 0l-74.24 66.56c-28.16-17.92-58.88-28.16-92.16-28.16-97.28 0-174.08 79.36-174.08 174.08 0 97.28 76.8 174.08 174.08 174.08s174.08-79.36 174.08-174.08c0-35.84-10.24-66.56-28.16-94.72l74.24-66.56c12.8-7.68 10.24-28.16 0-40.96z m-220.16 302.08c-53.76 0-97.28-43.52-97.28-99.84 0-53.76 43.52-99.84 97.28-99.84s97.28 43.52 97.28 99.84-43.52 99.84-97.28 99.84z m104.96 135.68V780.8H140.8v-716.8h378.88c0-38.4 30.72-69.12 43.52-89.6H112.64C79.36-25.6 51.2 2.56 51.2 38.4v768C51.2 842.24 79.36 870.4 112.64 870.4h791.04c33.28 0 61.44-28.16 61.44-64v-522.24c-20.48 20.48-56.32 51.2-87.04 64z m-389.12 194.56c-23.04 40.96-48.64 71.68-81.92 94.72L450.56 665.6c40.96-28.16 79.36-87.04 112.64-171.52 25.6-64 66.56-125.44 117.76-186.88l-48.64-33.28c-53.76 76.8-92.16 145.92-115.2 199.68l-2.56 5.12c-33.28-120.32-102.4-212.48-202.24-279.04l-33.28 46.08c107.52 71.68 176.64 168.96 209.92 296.96z"  horiz-adv-x="1024" />

    
    <glyph glyph-name="baozhengjintuikuan" unicode="&#58954;" d="M832 432.64v-110.08c0-25.6-20.48-46.08-48.64-48.64H238.08c-25.6 0-48.64 20.48-48.64 48.64v143.36h48.64v-143.36h542.72V588.8c-12.8 15.36-64 71.68-125.44 133.12C565.76 808.96 522.24 839.68 509.44 844.8c-12.8-5.12-56.32-35.84-145.92-122.88-64-61.44-115.2-117.76-125.44-133.12v-120.32H189.44v128c0 10.24 0 15.36 46.08 64 25.6 28.16 58.88 64 92.16 94.72C471.04 893.44 496.64 893.44 509.44 893.44s40.96 0 181.76-138.24c33.28-30.72 66.56-66.56 92.16-94.72 46.08-51.2 46.08-53.76 46.08-64v-79.36H975.36c25.6 0 46.08-20.48 46.08-43.52v-542.72c0-23.04-20.48-43.52-46.08-43.52H46.08c-25.6 0-46.08 20.48-46.08 43.52V471.04c0 23.04 20.48 43.52 46.08 43.52h143.36v-81.92H84.48v-468.48h860.16V432.64h-112.64z m-545.28-243.2c38.4 0 69.12-30.72 69.12-66.56 0-35.84-30.72-66.56-69.12-66.56-38.4 0-69.12 30.72-69.12 66.56 0 35.84 30.72 66.56 69.12 66.56z m230.4 0c38.4 0 69.12-30.72 69.12-66.56 0-35.84-30.72-66.56-69.12-66.56-38.4 0-69.12 30.72-69.12 66.56 0 35.84 30.72 66.56 69.12 66.56z m161.28-69.12c0 35.84 30.72 66.56 69.12 66.56s69.12-30.72 69.12-66.56c0-35.84-30.72-66.56-69.12-66.56s-69.12 30.72-69.12 66.56zM386.56 683.52c-5.12 12.8 0 23.04 12.8 30.72 12.8 7.68 25.6 5.12 35.84-10.24l69.12-107.52 71.68 107.52c7.68 12.8 20.48 17.92 33.28 10.24s17.92-17.92 12.8-33.28l-69.12-107.52h58.88c5.12-5.12 7.68-10.24 7.68-17.92s-2.56-12.8-7.68-17.92h-76.8v-30.72h76.8c5.12-5.12 10.24-10.24 7.68-17.92s-2.56-12.8-7.68-17.92h-76.8v-79.36c2.56-23.04-7.68-33.28-28.16-33.28s-30.72 10.24-28.16 33.28v79.36h-74.24c-7.68 5.12-12.8 10.24-12.8 17.92s5.12 15.36 12.8 17.92h74.24V537.6h-74.24c-7.68 5.12-10.24 10.24-12.8 17.92 0 7.68 2.56 12.8 12.8 17.92H463.36l-76.8 110.08z"  horiz-adv-x="1026" />

    
    <glyph glyph-name="baozhengjincunru" unicode="&#58955;" d="M289.28 803.84v-20.48H240.64V862.72C240.64 880.64 256 896 273.92 896h471.04c17.92 0 33.28-15.36 33.28-33.28v-58.88h-48.64V847.36H289.28v-43.52z m499.2-235.52h38.4V486.4c0-10.24 0-15.36-46.08-64-25.6-28.16-58.88-64-92.16-94.72-143.36-138.24-171.52-138.24-181.76-138.24-12.8 0-40.96 0-181.76 138.24-33.28 30.72-66.56 66.56-92.16 94.72-46.08 51.2-46.08 56.32-46.08 64v81.92h48.64v-76.8c12.8-15.36 64-71.68 125.44-133.12 89.6-87.04 133.12-117.76 145.92-122.88 12.8 5.12 56.32 35.84 145.92 122.88 64 61.44 115.2 117.76 125.44 133.12V755.2H235.52v-143.36H186.88V755.2c0 25.6 23.04 48.64 48.64 48.64h5.12v-20.48h48.64v20.48h442.88v-20.48h48.64v20.48c25.6 0 48.64-20.48 48.64-48.64v-104.96h145.92c25.6 0 46.08-20.48 46.08-43.52v-678.4c0-23.04-20.48-43.52-46.08-43.52H46.08c-25.6 0-46.08 20.48-46.08 43.52V606.72c0 23.04 20.48 43.52 46.08 43.52h143.36v-81.92H84.48v-604.16h860.16V568.32h-112.64V614.4H793.6v-46.08h38.4V614.4H793.6v-46.08z m-69.12-289.28c-7.68 0-12.8 5.12-12.8 12.8s5.12 12.8 12.8 12.8h120.32c7.68 0 12.8-5.12 12.8-12.8s-5.12-12.8-12.8-12.8h-120.32zM235.52 568.32H186.88V614.4h48.64v-46.08z m48.64-404.48c38.4 0 69.12-30.72 69.12-66.56s-30.72-66.56-69.12-66.56c-38.4 0-69.12 30.72-69.12 66.56s30.72 66.56 69.12 66.56z m230.4 0c38.4 0 69.12-30.72 69.12-66.56 0-35.84-30.72-66.56-69.12-66.56s-69.12 30.72-69.12 66.56 30.72 66.56 69.12 66.56z m161.28-69.12c0 35.84 30.72 66.56 69.12 66.56s69.12-30.72 69.12-66.56c0-35.84-30.72-66.56-69.12-66.56s-69.12 30.72-69.12 66.56zM184.32 279.04c-7.68 0-12.8 5.12-12.8 12.8s5.12 12.8 12.8 12.8h120.32c7.68 0 12.8-5.12 12.8-12.8s-5.12-12.8-12.8-12.8H184.32z m192-43.52c7.68 0 12.8-5.12 12.8-12.8s-5.12-12.8-12.8-12.8H184.32c-7.68 0-12.8 5.12-12.8 12.8s5.12 12.8 12.8 12.8h192z m271.36-23.04c-7.68 0-12.8 5.12-12.8 12.8s5.12 12.8 12.8 12.8h192c7.68 0 12.8-5.12 12.8-12.8s-5.12-12.8-12.8-12.8h-192z m84.48 570.88v20.48h48.64v-20.48h-48.64zM384 657.92c-5.12 12.8 0 23.04 12.8 30.72 12.8 7.68 25.6 5.12 35.84-10.24l69.12-107.52 71.68 107.52c7.68 12.8 20.48 17.92 33.28 10.24s17.92-17.92 12.8-33.28l-69.12-107.52h58.88c5.12-5.12 7.68-10.24 7.68-17.92s-2.56-12.8-7.68-17.92h-76.8v-30.72h76.8c5.12-5.12 10.24-10.24 7.68-17.92s-2.56-12.8-7.68-17.92h-76.8v-79.36c2.56-23.04-7.68-33.28-28.16-33.28s-30.72 10.24-28.16 33.28v79.36h-74.24c-7.68 5.12-12.8 10.24-12.8 17.92s5.12 15.36 12.8 17.92h74.24V512h-74.24c-7.68 5.12-10.24 10.24-12.8 17.92 0 7.68 2.56 12.8 12.8 17.92H460.8l-76.8 110.08z"  horiz-adv-x="1024" />

    
    <glyph glyph-name="zhangbuguanlianguizeguanli" unicode="&#58956;" d="M634.88 166.4H145.92c-66.56 0-120.32 53.76-120.32 120.32V750.08C25.6 816.64 79.36 870.4 145.92 870.4h488.96c66.56 0 120.32-53.76 120.32-120.32v-35.84c0-25.6-20.48-46.08-46.08-46.08s-46.08 20.48-46.08 46.08V750.08c0 15.36-12.8 28.16-28.16 28.16H145.92c-15.36 0-28.16-12.8-28.16-28.16v-463.36c0-15.36 12.8-28.16 28.16-28.16h488.96c15.36 0 28.16 12.8 28.16 28.16v84.48c0 25.6 20.48 46.08 46.08 46.08s46.08-20.48 46.08-46.08v-84.48c0-66.56-53.76-120.32-120.32-120.32zM414.72-128c-66.56 0-120.32 53.76-120.32 120.32V25.6c0 25.6 20.48 46.08 46.08 46.08s46.08-20.48 46.08-46.08v-33.28c0-15.36 12.8-28.16 28.16-28.16h488.96c15.36 0 28.16 12.8 28.16 28.16V455.68c0 15.36-12.8 28.16-28.16 28.16H414.72c-15.36 0-28.16-12.8-28.16-28.16v-84.48c0-25.6-20.48-46.08-46.08-46.08s-46.08 20.48-46.08 46.08v84.48c0 66.56 53.76 120.32 120.32 120.32h488.96c66.56 0 120.32-53.76 120.32-120.32v-463.36c0-66.56-53.76-120.32-120.32-120.32H414.72z"  horiz-adv-x="1024" />

    
    <glyph glyph-name="dianzihuidan" unicode="&#58957;" d="M102.4 870.4h778.24c28.16 0 51.2-23.04 51.2-48.64v-860.16c0-28.16-23.04-48.64-51.2-48.64-10.24 0-17.92 2.56-28.16 7.68l-128 76.8-209.92-125.44-227.84 125.44L128-87.04c-25.6-12.8-56.32-5.12-69.12 20.48-5.12 7.68-5.12 15.36-5.12 23.04V821.76C51.2 847.36 74.24 870.4 102.4 870.4z m25.6-872.96l156.16 84.48 227.84-122.88 212.48 125.44 128-76.8V796.16H128v-798.72z m166.4 673.28h386.56c20.48 0 38.4-17.92 38.4-38.4s-17.92-38.4-38.4-38.4H294.4c-20.48 0-38.4 17.92-38.4 38.4s17.92 38.4 38.4 38.4z m0-148.48h386.56c20.48 0 38.4-17.92 38.4-38.4s-17.92-38.4-38.4-38.4H294.4c-20.48 0-38.4 17.92-38.4 38.4s17.92 38.4 38.4 38.4z m0-151.04h386.56c20.48 0 38.4-17.92 38.4-38.4s-17.92-38.4-38.4-38.4H294.4c-20.48 0-38.4 17.92-38.4 38.4s17.92 38.4 38.4 38.4z"  horiz-adv-x="1024" />

    
    <glyph glyph-name="biaoduanchengxinzhanghushezhi" unicode="&#58958;" d="M721.92 586.24L826.88 742.4c5.12 5.12 5.12 12.8 5.12 20.48V821.76c0 40.96-33.28 74.24-74.24 74.24h-486.4C230.4 896 197.12 862.72 197.12 821.76v-58.88c0-7.68 2.56-12.8 5.12-20.48l102.4-158.72C197.12 514.56 128 394.24 128 258.56 128 46.08 302.08-128 514.56-128s386.56 174.08 386.56 386.56c0 138.24-71.68 258.56-179.2 327.68z m-286.72 51.2V821.76h161.28v-184.32c-25.6 5.12-53.76 7.68-79.36 7.68-28.16 2.56-56.32 0-81.92-7.68z m325.12 135.68l-92.16-135.68V821.76h92.16v-48.64zM271.36 821.76h92.16v-189.44l-92.16 140.8V821.76z m243.2-842.24c-156.16 0-281.6 125.44-281.6 281.6s125.44 281.6 281.6 281.6 281.6-125.44 281.6-281.6c2.56-153.6-125.44-281.6-281.6-281.6z m-7.68 294.4v-28.16c0-20.48-2.56-40.96-5.12-58.88h23.04c5.12 0 7.68 5.12 10.24 15.36 0 10.24 2.56 33.28 2.56 71.68h-30.72z m-7.68-102.4c-7.68-33.28-20.48-61.44-38.4-87.04l-28.16 25.6c23.04 28.16 35.84 69.12 35.84 122.88v138.24h110.08v51.2H614.4v-51.2h25.6c-7.68 15.36-15.36 28.16-23.04 40.96l28.16 10.24c7.68-12.8 15.36-28.16 23.04-40.96l-23.04-10.24h35.84v-33.28H614.4c2.56-43.52 5.12-76.8 7.68-99.84 0-2.56 0-5.12 2.56-7.68 10.24 23.04 17.92 51.2 25.6 79.36l33.28-12.8c-10.24-46.08-25.6-87.04-46.08-120.32 2.56-7.68 5.12-12.8 7.68-17.92 7.68-15.36 12.8-23.04 15.36-23.04 2.56 0 5.12 15.36 5.12 48.64l33.28-17.92c-7.68-51.2-17.92-76.8-33.28-76.8-12.8 0-25.6 10.24-38.4 33.28-5.12 5.12-7.68 12.8-10.24 20.48-17.92-23.04-38.4-40.96-61.44-53.76l-23.04 28.16c28.16 15.36 51.2 35.84 71.68 64-5.12 12.8-7.68 25.6-10.24 40.96-5.12 30.72-10.24 66.56-12.8 112.64h-71.68v-43.52h64c0-69.12-2.56-110.08-7.68-125.44-5.12-15.36-15.36-23.04-28.16-23.04h-25.6l-12.8 28.16z m-117.76 250.88c23.04-17.92 43.52-35.84 61.44-53.76l-28.16-25.6c-15.36 17.92-35.84 35.84-61.44 53.76l28.16 25.6zM322.56 307.2h89.6v-140.8c5.12 5.12 12.8 12.8 20.48 17.92l10.24-35.84c-20.48-20.48-40.96-38.4-64-53.76l-15.36 33.28c7.68 5.12 10.24 12.8 10.24 20.48v122.88h-51.2V307.2z"  horiz-adv-x="1024" />

    
    <glyph glyph-name="baozhengjintuikuanmingxichaxun" unicode="&#58959;" d="M990.885572-110.169154l-10.189055-10.189055c-10.189055-10.189055-33.114428-10.189055-43.303482 0l-73.870647 66.228856c-28.0199-17.830846-58.587065-28.0199-91.701492-28.019901-96.79602 0-173.21393 78.965174-173.213931 173.213931 0 96.79602 76.41791 173.21393 173.213931 173.21393s173.21393-78.965174 173.21393-173.21393c0-35.661692-10.189055-66.228856-28.019901-94.248757l73.870647-66.228855c12.736318-7.641791 10.189055-28.0199 0-40.756219z m-219.064676 300.577114c-53.492537 0-96.79602-43.303483-96.79602-99.343283 0-53.492537 43.303483-99.343284 96.79602-99.343284s96.79602 43.303483 96.796019 99.343284-43.303483 99.343284-96.796019 99.343283z m104.43781 135.004975V755.900498H142.646766v-713.233831h376.995025c0-38.208955 30.567164-68.776119 43.303483-89.154229H114.626866C81.512438-46.487562 53.492537-18.467662 53.492537 17.19403v764.179104C53.492537 817.034826 81.512438 845.054726 114.626866 845.054726h787.104477c33.114428 0 61.134328-28.0199 61.134329-63.681592v-519.641791c-20.378109 20.378109-56.039801 50.945274-86.606966 63.681592zM328.597015 659.104478l-33.114428-35.661692c33.114428-30.567164 58.587065-58.587065 76.417911-84.059701l35.661691 38.208955c-22.925373 28.0199-48.39801 53.492537-78.965174 81.512438z m262.368159-468.696518h-81.512438c-28.0199 0-53.492537 2.547264-73.870646 7.641791-17.830846 5.094527-35.661692 17.830846-48.39801 35.661692-7.641791 7.641791-12.736318 12.736318-17.830846 12.736318-10.189055 0-25.472637-22.925373-48.39801-68.776119l-35.661692 38.208955c22.925373 40.756219 43.303483 68.776119 61.134329 78.965174V437.492537h-61.134329v50.945274h104.437811v-198.686567l5.094528-5.094528c10.189055-12.736318 20.378109-22.925373 30.567164-30.567164 12.736318-7.641791 33.114428-12.736318 61.134328-12.736318h94.248756c15.283582 0 28.0199-2.547264 40.756219-5.094528l-30.567164-45.850746z m-45.850746 241.99005c22.925373-15.283582 43.303483-28.0199 63.681592-45.850746 12.736318 15.283582 25.472637 28.0199 35.661691 45.850746l35.661692-30.567164c-12.736318-15.283582-25.472637-30.567164-35.661692-43.303483 20.378109-17.830846 45.850746-43.303483 63.681592-61.134328l-45.850746-22.925373c-40.756219 45.850746-84.059701 78.965174-145.19403 119.721393l28.019901 38.208955z m-56.039801 89.154229V488.437811h135.004975v33.114428h-135.004975z m137.552239 45.850746v33.114428h-135.004975v-33.114428h135.004975z m-137.552239-127.363184v-117.174129c25.472637 5.094527 50.945274 12.736318 76.41791 20.378109l10.189055-48.39801c-35.661692-10.189055-84.059701-22.925373-140.099502-33.114428l-10.189055 45.850747c10.189055 5.094527 15.283582 12.736318 15.283582 20.378109V643.820896h229.253731V437.492537h-180.855721z"  horiz-adv-x="1024" />

    
    <glyph glyph-name="danbizhuanzhang" unicode="&#58960;" d="M896 250.88l-138.24 163.84H844.8c-12.8 194.56-174.08 348.16-368.64 348.16-202.24 0-368.64-168.96-368.64-376.32s166.4-376.32 368.64-376.32c74.24 0 145.92 23.04 207.36 66.56 23.04 17.92 58.88 10.24 74.24-12.8 17.92-23.04 10.24-58.88-12.8-74.24-79.36-56.32-171.52-84.48-268.8-84.48C215.04-94.72 0 122.88 0 386.56S215.04 870.4 476.16 870.4c248.32 0 455.68-212.48 478.72-455.68H1024l-128-163.84zM327.68 588.8c-7.68 17.92-2.56 33.28 17.92 46.08 20.48 10.24 35.84 7.68 48.64-12.8l97.28-153.6 99.84 153.6c12.8 17.92 28.16 23.04 46.08 15.36 20.48-7.68 25.6-25.6 17.92-48.64l-99.84-151.04H640c7.68-7.68 12.8-15.36 12.8-25.6s-5.12-20.48-12.8-25.6h-107.52v-43.52H640c7.68-7.68 12.8-15.36 12.8-25.6s-5.12-20.48-12.8-25.6h-107.52v-110.08c2.56-30.72-10.24-48.64-38.4-48.64s-43.52 15.36-40.96 48.64v110.08h-107.52c-10.24 5.12-15.36 15.36-15.36 25.6 0 12.8 5.12 20.48 15.36 25.6h107.52v43.52h-104.96c-10.24 7.68-15.36 15.36-15.36 25.6s5.12 20.48 15.36 25.6h81.92l-102.4 151.04z"  horiz-adv-x="1024" />

    
    <glyph glyph-name="duojizhangbuchaxun" unicode="&#58961;" d="M990.72-84.48l-10.24-10.24c-10.24-10.24-35.84-10.24-46.08 0L855.04-25.6c-28.16-17.92-61.44-28.16-97.28-28.16-99.84 0-181.76 81.92-181.76 181.76s81.92 181.76 181.76 181.76 181.76-81.92 181.76-181.76c0-35.84-10.24-69.12-28.16-97.28l79.36-69.12c10.24-12.8 10.24-33.28 0-46.08z m-232.96 317.44c-56.32 0-102.4-46.08-102.4-102.4s46.08-102.4 102.4-102.4 102.4 46.08 102.4 102.4-46.08 102.4-102.4 102.4z m110.08 143.36V640H256v-563.2h235.52c0-38.4 33.28-71.68 43.52-94.72H225.28c-35.84 0-64 30.72-64 66.56v614.4c0 35.84 28.16 66.56 64 66.56h668.16c35.84 0 64-30.72 64-66.56v-358.4c-17.92 25.6-56.32 58.88-89.6 71.68zM92.16 780.8v-724.48c-30.72 0-92.16 2.56-92.16 58.88V842.24C0 872.96 23.04 896 53.76 896h729.6c46.08 0 56.32-51.2 56.32-81.92l-721.92-7.68c-15.36 0-25.6-12.8-25.6-25.6zM409.6 512h307.2c15.36 0 25.6-10.24 25.6-25.6v-94.72c-58.88 5.12-110.08-7.68-153.6-40.96s-79.36-81.92-102.4-145.92h-76.8c-15.36 0-25.6 10.24-25.6 25.6V486.4c0 15.36 10.24 25.6 25.6 25.6z"  horiz-adv-x="1024" />

    
    <glyph glyph-name="duojizhangbumingxitiaozhang" unicode="&#58962;" d="M867.84 355.84V640H256v-563.2h279.04v-94.72H225.28c-35.84 0-64 30.72-64 66.56v614.4c0 35.84 28.16 66.56 64 66.56h668.16c35.84 0 64-30.72 64-66.56v-358.4c-12.8 17.92-40.96 35.84-89.6 51.2z m-450.56 161.28h268.8c23.04 0 40.96-17.92 40.96-40.96s-17.92-40.96-40.96-40.96H417.28c-23.04 0-40.96 17.92-40.96 40.96s20.48 40.96 40.96 40.96z m0-161.28h53.76c23.04 0 40.96-17.92 40.96-40.96 0-23.04-17.92-40.96-40.96-40.96h-53.76c-23.04 0-40.96 17.92-40.96 40.96s20.48 40.96 40.96 40.96zM92.16 780.8v-724.48c-30.72 0-92.16 2.56-92.16 58.88V842.24C0 872.96 23.04 896 53.76 896h729.6c46.08 0 56.32-51.2 56.32-81.92l-721.92-10.24c-15.36 2.56-25.6-10.24-25.6-23.04z m576-847.36l-30.72-53.76-23.04 79.36-23.04 79.36 84.48 23.04 84.48 23.04-38.4-71.68c10.24-5.12 20.48-10.24 33.28-15.36 92.16-33.28 194.56 7.68 250.88 64-7.68-102.4-122.88-207.36-261.12-163.84-20.48 7.68-58.88 25.6-76.8 35.84z m230.4 299.52l33.28 53.76 20.48-79.36 20.48-79.36-84.48-20.48-84.48-20.48 40.96 69.12-30.72 15.36c-89.6 35.84-194.56-2.56-253.44-58.88 10.24 102.4 130.56 202.24 266.24 156.16 15.36-7.68 56.32-25.6 71.68-35.84z"  horiz-adv-x="1024" />

    
    <glyph glyph-name="duojizhangbuquanxianguanli" unicode="&#58963;" d="M755.2-102.4h-486.4C135.68-102.4 25.6 7.68 25.6 140.8v486.4C25.6 760.32 135.68 870.4 268.8 870.4h486.4c133.12 0 243.2-110.08 243.2-243.2v-486.4c0-133.12-110.08-243.2-243.2-243.2z m-486.4 883.2c-84.48 0-153.6-69.12-153.6-153.6v-486.4c0-84.48 69.12-153.6 153.6-153.6h486.4c84.48 0 153.6 69.12 153.6 153.6v486.4c0 84.48-69.12 153.6-153.6 153.6h-486.4z m486.4-573.44c17.92-15.36 25.6-38.4 17.92-56.32-5.12-15.36-25.6-28.16-48.64-28.16h-184.32c-20.48 0-25.6 7.68-28.16 28.16-2.56 56.32 2.56 110.08-2.56 166.4-7.68 58.88-33.28 99.84-89.6 117.76-23.04 5.12-35.84 25.6-33.28 48.64 2.56 10.24 5.12 20.48 17.92 23.04 7.68 2.56 7.68 7.68 7.68 10.24l5.12 30.72c12.8 61.44 64 102.4 128 99.84 58.88-2.56 110.08-46.08 117.76-104.96 2.56-7.68 2.56-12.8 2.56-17.92 2.56-7.68 2.56-17.92 15.36-20.48 7.68-2.56 12.8-7.68 12.8-17.92 2.56-20.48-2.56-40.96-20.48-53.76-10.24-7.68-17.92-17.92-20.48-30.72-7.68-20.48-15.36-38.4-35.84-53.76-7.68-5.12-10.24-12.8-15.36-17.92-10.24-23.04-7.68-43.52 17.92-53.76 20.48-10.24 43.52-17.92 66.56-25.6 23.04-12.8 48.64-25.6 69.12-43.52z m-309.76 64c25.6 0 28.16-2.56 28.16-25.6v-97.28c0-20.48-2.56-25.6-25.6-25.6h-179.2c-17.92 0-20.48 2.56-20.48 20.48v104.96c0 17.92 5.12 23.04 25.6 23.04 10.24-2.56 15.36 2.56 15.36 15.36-2.56 15.36-2.56 30.72 2.56 43.52 10.24 43.52 38.4 64 84.48 58.88 35.84-2.56 56.32-30.72 61.44-71.68v-38.4c-2.56-7.68 0-7.68 7.68-7.68z m-40.96 0c0 23.04 2.56 43.52-7.68 64-12.8 28.16-53.76 33.28-71.68 7.68-7.68-12.8-12.8-25.6-12.8-38.4 0-35.84 0-35.84 35.84-35.84h15.36c10.24 2.56 25.6-2.56 40.96 2.56z"  horiz-adv-x="1024" />

    
    <glyph glyph-name="duojizhangbuyuetiaozhang" unicode="&#58964;" d="M867.84 350.72V640H256v-563.2h279.04v-94.72H225.28c-35.84 0-64 30.72-64 66.56v614.4c0 35.84 28.16 66.56 64 66.56h668.16c35.84 0 64-30.72 64-66.56v-358.4c-12.8 17.92-40.96 33.28-89.6 46.08zM92.16 780.8v-724.48c-30.72 0-92.16 2.56-92.16 58.88V842.24C0 872.96 23.04 896 53.76 896h729.6c46.08 0 56.32-51.2 56.32-81.92l-721.92-7.68c-15.36 0-25.6-12.8-25.6-25.6z m294.4-253.44c-5.12 12.8 0 23.04 12.8 30.72 12.8 7.68 25.6 5.12 35.84-10.24l69.12-107.52 71.68 107.52c7.68 12.8 20.48 17.92 33.28 10.24 12.8-5.12 17.92-17.92 12.8-33.28l-69.12-107.52h58.88c5.12-5.12 7.68-10.24 7.68-17.92 0-7.68-2.56-12.8-7.68-17.92h-76.8v-30.72h76.8c5.12-5.12 10.24-10.24 7.68-17.92 0-7.68-2.56-12.8-7.68-17.92h-76.8v-79.36c2.56-23.04-7.68-33.28-28.16-33.28s-30.72 10.24-28.16 33.28v79.36h-74.24c-7.68 5.12-12.8 10.24-12.8 17.92s5.12 15.36 12.8 17.92h74.24v30.72h-74.24c-7.68 5.12-10.24 10.24-12.8 17.92 0 7.68 2.56 12.8 12.8 17.92h58.88l-76.8 110.08z m281.6-593.92l-30.72-53.76-23.04 79.36-23.04 79.36 84.48 23.04 84.48 23.04-38.4-71.68c10.24-5.12 20.48-10.24 33.28-15.36 92.16-33.28 194.56 7.68 250.88 64-7.68-102.4-122.88-207.36-261.12-163.84-20.48 7.68-58.88 25.6-76.8 35.84z m230.4 299.52l33.28 53.76 20.48-79.36 20.48-79.36-84.48-20.48-84.48-20.48 40.96 69.12-30.72 15.36c-89.6 35.84-194.56-2.56-253.44-58.88 10.24 102.4 130.56 202.24 266.24 156.16 15.36-7.68 56.32-25.6 71.68-35.84z"  horiz-adv-x="1024" />

    
    <glyph glyph-name="duojizhangbujiaoyimingxichaxun" unicode="&#58965;" d="M989.526185-84.588529l-10.214464-10.214464c-10.214464-10.214464-35.750623-10.214464-45.965088 0l-79.162094 71.501247c-28.089776-17.875312-61.286783-28.089776-97.037407-28.089775-99.591022 0-181.306733 81.715711-181.306733 181.306733s81.715711 181.306733 181.306733 181.306733 181.306733-81.715711 181.306733-181.306733c0-35.750623-10.214464-68.947631-28.089775-97.037407l79.162095-68.94763c10.214464-15.321696 10.214464-35.750623 0-48.518704z m-232.379053 316.648379c-56.179551 0-102.144638-45.965087-102.144638-102.144638s45.965087-102.144638 102.144638-102.144638 102.144638 45.965087 102.144639 102.144638-45.965087 102.144638-102.144639 102.144638z m109.805486 143.002494V638.084788H256.638404v-561.795511h234.932668c0-38.304239 33.197007-71.501247 43.411472-94.483791H225.995012c-35.750623 0-63.840399 30.643392-63.840399 66.394015v612.867831c0 35.750623 28.089776 66.394015 63.840399 66.394015h666.493766c35.750623 0 63.840399-30.643392 63.840399-66.394015v-357.506235c-17.875312 25.53616-56.179551 58.733167-89.376559 71.501247z m-449.436409 140.448878h268.129676c22.982544 0 40.857855-17.875312 40.857856-40.857855s-17.875312-40.857855-40.857856-40.857856H417.516209c-22.982544 0-40.857855 17.875312-40.857855 40.857856s20.428928 40.857855 40.857855 40.857855z m0-160.877806h53.625936c22.982544 0 40.857855-17.875312 40.857855-40.857855 0-22.982544-17.875312-40.857855-40.857855-40.857855h-53.625936c-22.982544 0-40.857855 17.875312-40.857855 40.857855 2.553616 22.982544 20.428928 40.857855 40.857855 40.857855zM93.206983 778.533666v-722.673317c-30.643392 0-91.930175 2.553616-91.930175 58.733167V842.374065C1.276808 873.017456 24.259352 896 54.902743 896h727.780549c45.965087 0 56.179551-51.072319 56.179551-81.715711l-720.119701-10.214464c-15.321696 0-25.53616-12.76808-25.536159-25.536159z"  horiz-adv-x="1024" />

    
    <glyph glyph-name="huizhaobiaoqianyuechaxun" unicode="&#58966;" d="M990.72-110.08l-10.24-10.24c-10.24-10.24-33.28-10.24-43.52 0l-74.24 66.56c-25.6-17.92-58.88-28.16-92.16-28.16-94.72 0-174.08 76.8-174.08 174.08s76.8 174.08 174.08 174.08 174.08-76.8 174.08-174.08c0-33.28-10.24-66.56-28.16-92.16l74.24-66.56c10.24-12.8 10.24-33.28 0-43.52z m-220.16 299.52c-53.76 0-97.28-43.52-97.28-97.28 0-53.76 43.52-97.28 97.28-97.28s97.28 43.52 97.28 97.28c0 53.76-43.52 97.28-97.28 97.28z m102.4 138.24V757.76H140.8v-581.12h145.92v-133.12h230.4c0-38.4 30.72-69.12 43.52-89.6h-307.2c-33.28 0-199.68 156.16-199.68 192V780.8C51.2 816.64 79.36 844.8 112.64 844.8h785.92c33.28 0 61.44-28.16 61.44-64v-519.68c-17.92 23.04-53.76 53.76-87.04 66.56zM299.52 650.24h409.6c20.48 0 38.4-17.92 38.4-38.4s-17.92-38.4-38.4-38.4h-409.6c-20.48 0-38.4 17.92-38.4 38.4s17.92 38.4 38.4 38.4z m0-153.6h409.6c20.48 0 38.4-17.92 38.4-38.4s-17.92-38.4-38.4-38.4h-409.6c-20.48 0-38.4 17.92-38.4 38.4s17.92 38.4 38.4 38.4z m0-153.6h204.8c20.48 0 38.4-17.92 38.4-38.4s-17.92-38.4-38.4-38.4h-204.8c-20.48 0-38.4 17.92-38.4 38.4s17.92 38.4 38.4 38.4z"  horiz-adv-x="1024" />

    
    <glyph glyph-name="mingxitiaozhang" unicode="&#58967;" d="M816.64 355.84V793.6H204.8v-716.8h279.04v-94.72H174.08c-35.84 0-64 30.72-64 66.56v768C110.08 852.48 138.24 883.2 174.08 883.2h668.16c35.84 0 64-30.72 64-66.56v-512c-12.8 17.92-40.96 35.84-89.6 51.2z m-199.68-422.4l-30.72-53.76-23.04 79.36-23.04 79.36 84.48 23.04 84.48 23.04-38.4-71.68c10.24-5.12 20.48-10.24 33.28-15.36 92.16-33.28 194.56 7.68 250.88 64-7.68-102.4-122.88-207.36-261.12-163.84-20.48 7.68-58.88 25.6-76.8 35.84z m230.4 299.52l33.28 53.76 20.48-79.36 20.48-79.36-84.48-20.48-84.48-20.48 40.96 69.12-30.72 15.36c-89.6 35.84-194.56-2.56-253.44-58.88 10.24 102.4 130.56 202.24 266.24 156.16 15.36-7.68 56.32-25.6 71.68-35.84z m-512 414.72c-7.68 15.36-2.56 28.16 15.36 38.4 17.92 10.24 30.72 5.12 43.52-10.24l84.48-133.12 87.04 133.12c10.24 15.36 23.04 20.48 40.96 12.8s20.48-20.48 15.36-40.96l-87.04-130.56h71.68c7.68-5.12 10.24-12.8 10.24-23.04s-2.56-17.92-10.24-23.04h-92.16v-38.4h92.16c7.68-5.12 10.24-12.8 10.24-23.04s-2.56-17.92-10.24-23.04H512v-94.72c2.56-28.16-10.24-40.96-33.28-40.96-25.6 0-35.84 12.8-35.84 40.96v94.72h-92.16c-10.24 5.12-15.36 12.8-15.36 23.04s5.12 17.92 15.36 23.04h92.16v38.4h-92.16c-10.24 5.12-12.8 12.8-15.36 23.04 0 10.24 5.12 17.92 15.36 23.04h71.68l-87.04 130.56z"  horiz-adv-x="1024" />

    
    <glyph glyph-name="duojizhangbuyuechaxun" unicode="&#58968;" d="M990.72-84.48l-10.24-10.24c-10.24-10.24-35.84-10.24-46.08 0L855.04-25.6c-28.16-17.92-61.44-28.16-97.28-28.16-99.84 0-181.76 81.92-181.76 181.76s81.92 181.76 181.76 181.76 181.76-81.92 181.76-181.76c0-35.84-10.24-69.12-28.16-97.28l79.36-69.12c10.24-12.8 10.24-33.28 0-46.08z m-232.96 317.44c-56.32 0-102.4-46.08-102.4-102.4s46.08-102.4 102.4-102.4 102.4 46.08 102.4 102.4-46.08 102.4-102.4 102.4z m110.08 143.36V640H256v-563.2h235.52c0-38.4 33.28-71.68 43.52-94.72H225.28c-35.84 0-64 30.72-64 66.56v614.4c0 35.84 28.16 66.56 64 66.56h668.16c35.84 0 64-30.72 64-66.56v-358.4c-17.92 25.6-56.32 58.88-89.6 71.68zM92.16 780.8v-724.48c-30.72 0-92.16 2.56-92.16 58.88V842.24C0 872.96 23.04 896 53.76 896h729.6c46.08 0 56.32-51.2 56.32-81.92l-721.92-7.68c-15.36 0-25.6-12.8-25.6-25.6z m294.4-253.44c-5.12 12.8 0 23.04 12.8 30.72 12.8 7.68 25.6 5.12 35.84-10.24l69.12-107.52 71.68 107.52c7.68 12.8 20.48 17.92 33.28 10.24 12.8-5.12 17.92-17.92 12.8-33.28l-69.12-107.52h58.88c5.12-5.12 7.68-10.24 7.68-17.92 0-7.68-2.56-12.8-7.68-17.92h-76.8v-30.72h76.8c5.12-5.12 10.24-10.24 7.68-17.92 0-7.68-2.56-12.8-7.68-17.92h-76.8v-79.36c2.56-23.04-7.68-33.28-28.16-33.28s-30.72 10.24-28.16 33.28v79.36h-74.24c-7.68 5.12-12.8 10.24-12.8 17.92s5.12 15.36 12.8 17.92h74.24v30.72h-74.24c-7.68 5.12-10.24 10.24-12.8 17.92 0 7.68 2.56 12.8 12.8 17.92h58.88l-76.8 110.08z"  horiz-adv-x="1024" />

    
    <glyph glyph-name="mingxichaxun" unicode="&#58969;" d="M591.36 156.16l161.28-161.28c23.04-23.04 23.04-58.88 0-79.36-23.04-23.04-58.88-23.04-79.36 0L512 76.8c-15.36 15.36-20.48 40.96-12.8 61.44-53.76-46.08-120.32-74.24-194.56-74.24C138.24 64 2.56 199.68 2.56 366.08S135.68 665.6 302.08 665.6s302.08-135.68 302.08-302.08c0-74.24-28.16-143.36-74.24-194.56 20.48 7.68 43.52 2.56 61.44-12.8z m-291.84 384c-97.28 0-174.08-79.36-174.08-174.08 0-97.28 79.36-174.08 174.08-174.08s174.08 79.36 174.08 174.08c0 97.28-79.36 174.08-174.08 174.08zM320 870.4h640c20.48 0 38.4-17.92 38.4-38.4S980.48 793.6 960 793.6h-640c-20.48 0-38.4 17.92-38.4 38.4S299.52 870.4 320 870.4z m307.2-204.8h332.8c20.48 0 38.4-17.92 38.4-38.4s-17.92-38.4-38.4-38.4h-332.8c-20.48 0-38.4 17.92-38.4 38.4S606.72 665.6 627.2 665.6z m102.4-204.8h230.4c20.48 0 38.4-17.92 38.4-38.4s-17.92-38.4-38.4-38.4h-230.4c-20.48 0-38.4 17.92-38.4 38.4s17.92 38.4 38.4 38.4z m0-204.8h230.4c20.48 0 38.4-17.92 38.4-38.4s-17.92-38.4-38.4-38.4h-230.4c-20.48 0-38.4 17.92-38.4 38.4s17.92 38.4 38.4 38.4z"  horiz-adv-x="1024" />

    
    </font>
</defs>
</svg>
